<?xml version="1.0" encoding="UTF-8"?>
<svg id="Layer_1" data-name="Layer 1" xmlns="http://www.w3.org/2000/svg" viewBox="0 0 752.53 216">
  <defs>
    <style>
      .cls-1, .cls-2, .cls-3, .cls-4, .cls-5, .cls-6, .cls-7, .cls-8, .cls-9, .cls-10, .cls-11, .cls-12, .cls-13, .cls-14, .cls-15, .cls-16, .cls-17, .cls-18 {
        stroke: #231f20;
      }

      .cls-1, .cls-2, .cls-3, .cls-4, .cls-5, .cls-6, .cls-7, .cls-12, .cls-13, .cls-14, .cls-15, .cls-16, .cls-17 {
        fill: none;
      }

      .cls-1, .cls-2, .cls-9 {
        stroke-width: .1px;
      }

      .cls-1, .cls-4, .cls-5, .cls-6, .cls-7, .cls-13, .cls-14 {
        stroke-linejoin: round;
      }

      .cls-1, .cls-5, .cls-6, .cls-7, .cls-13, .cls-14 {
        stroke-linecap: round;
      }

      .cls-3, .cls-10 {
        stroke-width: .06px;
      }

      .cls-4 {
        stroke-width: .09px;
      }

      .cls-5 {
        stroke-width: .1px;
      }

      .cls-6 {
        stroke-width: .09px;
      }

      .cls-7 {
        stroke-width: .08px;
      }

      .cls-8 {
        fill: #231f20;
        stroke-width: .04px;
      }

      .cls-9, .cls-10, .cls-11, .cls-18, .cls-19 {
        fill: #231f20;
      }

      .cls-11 {
        stroke-width: .07px;
      }

      .cls-12 {
        stroke-width: 1.62px;
      }

      .cls-20 {
        fill: #231f20;
      }

      .cls-13, .cls-15 {
        stroke-width: .13px;
      }

      .cls-14 {
        stroke-width: .17px;
      }

      .cls-16 {
        stroke-width: .22px;
      }

      .cls-17 {
        stroke-width: 1.82px;
      }

      .cls-18 {
        stroke-width: .2px;
      }
    </style>
  </defs>
  <g>
    <path class="cls-17" d="M193.36,108.84c0,47.67-38.91,86.32-86.9,86.32S19.55,156.5,19.55,108.84,58.46,22.52,106.45,22.52s86.9,38.64,86.9,86.32Z"/>
    <path class="cls-12" d="M107.07,43.25c35.98.21,64.98,29.78,64.77,66.04-.21,36.27-29.55,65.5-65.53,65.29-35.98-.21-64.98-29.78-64.77-66.04.21-36.27,29.55-65.5,65.53-65.29h0Z"/>
    <path class="cls-18" d="M37.7,94.17c-.29,1.33-.62,1.26-1.76,1.02l-7.03-1.52c-.96-.21-1.41-.31-1.16-1.47.44-2.06,1.7-3.27,5.43-2.46,4.17.9,4.93,2.54,4.52,4.43l.59.14c.21-.97.32-1.87.18-2.74-.32-1.99-1.85-3.86-4.32-4.39-2.69-.58-4.8.46-5.99,2.25-.47.72-.76,1.55-.97,2.49l-1.14,5.28.5.11c.24-1.09.65-1.4,1.71-1.17l7.31,1.57c1.06.23,1.31.68,1.08,1.77l.5.11,1.14-5.27-.59-.14h0Z"/>
    <path class="cls-18" d="M38.92,88.88c.39-1.04.21-1.53-.81-1.91l-7-2.62c-1.02-.38-1.47-.13-1.86.91l-.48-.18,3.27-8.76,3.06.1.02.52c-1.63.5-3.27,1.61-3.89,3.27-.48,1.3-.05,1.46,1.03,1.86l2.83,1.05.11-.29c.55-1.45.53-2.18-.75-3.23l.21-.57,4.2,1.57-.21.57c-1.61-.16-2.22.46-2.76,1.88l-.12.32,3.07,1.15c.84.31,1.44.44,1.83-.59.67-1.8.26-3.8-.64-5.42l.35-.32,2.29,2.1-3.27,8.76-.48-.18h0Z"/>
    <path class="cls-18" d="M38.92,88.88c.39-1.04.21-1.53-.81-1.91l-7-2.62c-1.02-.38-1.47-.13-1.86.91l-.48-.18,3.27-8.76,3.06.1.02.52c-1.63.5-3.27,1.61-3.89,3.27-.48,1.3-.05,1.46,1.03,1.86l2.83,1.05.11-.29c.55-1.45.53-2.18-.75-3.23l.21-.57,4.2,1.57-.21.57c-1.61-.16-2.22.46-2.76,1.88l-.12.32,3.07,1.15c.84.31,1.44.44,1.83-.59.67-1.8.26-3.8-.64-5.42l.35-.32,2.29,2.1-3.27,8.76-.48-.18h0Z"/>
    <path class="cls-18" d="M45.18,66.47l-2.91-4.44,4.93,1.71-2.02,2.73.4.68,2.35-3.18,1.8.64c.28.09.6.21.83.38.38.27.4.58-.16,1.4l.41.3,3.23-4.38-.41-.31c-.85,1.11-1.59.75-2.69.36l-9.19-3.19-.76,2.25,4.7,7.22c.74,1.14,1.18,1.85.65,3.25l.41.31,2.45-3.32-.41-.3c-.44.52-1.12.91-1.75.44-.35-.25-.62-.67-.86-1.02l-.58-.86-.4-.68h0Z"/>
    <path class="cls-18" d="M45.18,66.47l-2.91-4.44,4.93,1.71-2.02,2.73.4.68,2.35-3.18,1.8.64c.28.09.6.21.83.38.38.27.4.58-.16,1.4l.41.3,3.23-4.38-.41-.31c-.85,1.11-1.59.75-2.69.36l-9.19-3.19-.76,2.25,4.7,7.22c.74,1.14,1.18,1.85.65,3.25l.41.31,2.45-3.32-.41-.3c-.44.52-1.12.91-1.75.44-.35-.25-.62-.67-.86-1.02l-.58-.86-.4-.68h0Z"/>
    <path class="cls-18" d="M28.98,113.11c-2.8.18-3.54,1.15-3.41,2.81.18,2.24,1.61,2.83,3.87,2.64l5.42-.44c1.08-.09,1.39-.5,1.3-1.62l.51-.04.31,3.8-.51.05c-.09-1.11-.46-1.47-1.54-1.38l-5.55.45c-2.69.22-4.21-.84-4.45-3.85-.25-3.08,1.02-4.72,3.41-4.92l5.88-.48c1.08-.09,1.39-.5,1.3-1.61l.51-.04.45,5.53-.51.04c-.09-1.11-.46-1.47-1.54-1.38l-5.44.45h0Z"/>
    <path class="cls-18" d="M32.03,132.47l5-1.36c1.27-.35,1.96-.67,1.69-2.19l.49-.13,1.08,3.94-.49.13c-.63-1.36-1.24-1.34-2.55-.97l-8.33,2.27-.37-1.36,6.87-8.34-5.75,1.57c-1.63.44-1.9.71-1.8,2.37l-.49.14-1.15-4.23.49-.14c.61,1.38,1.14,1.52,2.51,1.15l6.88-1.88c.41-.56.61-1.29.56-1.99l.49-.13,1.04,3.8-6.18,7.36h0Z"/>
    <path class="cls-18" d="M32.03,132.47l5-1.36c1.27-.35,1.96-.67,1.69-2.19l.49-.13,1.08,3.94-.49.13c-.63-1.36-1.24-1.34-2.55-.97l-8.33,2.27-.37-1.36,6.87-8.34-5.75,1.57c-1.63.44-1.9.71-1.8,2.37l-.49.14-1.15-4.23.49-.14c.61,1.38,1.14,1.52,2.51,1.15l6.88-1.88c.41-.56.61-1.29.56-1.99l.49-.13,1.04,3.8-6.18,7.36h0Z"/>
    <path class="cls-18" d="M39.68,135.83c1-.43,1.16-.92.72-1.95l.47-.2,2.2,5.1-.47.2c-.44-1.03-.91-1.25-1.91-.81l-6.87,2.95c-1,.43-1.16.92-.72,1.95l-.47.2-2.2-5.1.47-.2c.44,1.02.91,1.25,1.9.82l6.87-2.96h0Z"/>
    <path class="cls-18" d="M39.68,135.83c1-.43,1.16-.92.72-1.95l.47-.2,2.2,5.1-.47.2c-.44-1.03-.91-1.25-1.91-.81l-6.87,2.95c-1,.43-1.16.92-.72,1.95l-.47.2-2.2-5.1.47-.2c.44,1.02.91,1.25,1.9.82l6.87-2.96h0Z"/>
    <path class="cls-18" d="M48.05,147.69l-2.26,2.29-.43-.42c.63-1.23,1.2-3.16.48-4.46l-7.61,4.43c-.94.55-1.04,1.05-.48,2.02l-.44.25-2.79-4.8.44-.26c.56.97,1.05,1.13,1.99.59l7.61-4.43c-.94-1.24-2.6-1.68-4.09-1.76l-.16-.57,3.06-.9,4.67,8.02h0Z"/>
    <path class="cls-18" d="M52.36,168.66c-1.02-.91-.8-1.16-.02-2.03l4.78-5.38c.65-.73.96-1.08,1.85-.29,1.58,1.4,2.01,3.09-.53,5.94-2.83,3.19-4.63,3.04-6.08,1.75l-.41.44c.74.66,1.47,1.2,2.29,1.5,1.89.71,4.27.29,5.95-1.6,1.82-2.06,1.96-4.4.99-6.32-.4-.77-.97-1.43-1.69-2.06l-4.03-3.58-.34.38c.84.74.9,1.25.18,2.06l-4.97,5.59c-.72.81-1.24.81-2.07.07l-.34.38,4.03,3.58.41-.44h0Z"/>
    <path class="cls-18" d="M52.36,168.66c-1.02-.91-.8-1.16-.02-2.03l4.78-5.38c.65-.73.96-1.08,1.85-.29,1.58,1.4,2.01,3.09-.53,5.94-2.83,3.19-4.63,3.04-6.08,1.75l-.41.44c.74.66,1.47,1.2,2.29,1.5,1.89.71,4.27.29,5.95-1.6,1.82-2.06,1.96-4.4.99-6.32-.4-.77-.97-1.43-1.69-2.06l-4.03-3.58-.34.38c.84.74.9,1.25.18,2.06l-4.97,5.59c-.72.81-1.24.81-2.07.07l-.34.38,4.03,3.58.41-.44h0Z"/>
    <path class="cls-18" d="M82.56,174.61l-.47,3.18-.59-.09c-.22-1.36-.9-3.25-2.25-3.88l-3.52,8.07c-.43,1-.21,1.46.81,1.91l-.2.46-5.09-2.22.2-.47c1.02.45,1.52.29,1.95-.7l3.52-8.07c-1.49-.45-3.09.17-4.34,1l-.46-.38,1.94-2.54,8.51,3.72h0Z"/>
    <path class="cls-18" d="M99.93,178.44l.35,3.2-.59.06c-.55-1.27-1.69-2.92-3.16-3.18l-1.36,8.7c-.17,1.08.16,1.47,1.26,1.65l-.08.5-5.48-.86.08-.5c1.1.17,1.54-.11,1.71-1.18l1.37-8.7c-1.56-.06-2.94.95-3.95,2.06l-.54-.24,1.23-2.95,9.18,1.44h0Z"/>
    <path class="cls-18" d="M101.18,189.42c1.12,0,1.51-.35,1.51-1.43v-7.47c0-1.09-.39-1.43-1.51-1.43v-.51h9.35l.98,2.89-.48.2c-1.04-1.35-2.65-2.49-4.42-2.49-1.38,0-1.38.47-1.38,1.61v3.02h.31c1.55,0,2.23-.26,2.76-1.83h.6v4.48h-.6c-.42-1.56-1.21-1.92-2.73-1.92h-.34v3.27c0,.9.09,1.51,1.2,1.51,1.92,0,3.64-1.09,4.85-2.5l.42.22-1.16,2.89h-9.35v-.51h0Z"/>
    <path class="cls-18" d="M101.18,189.42c1.12,0,1.51-.35,1.51-1.43v-7.47c0-1.09-.39-1.43-1.51-1.43v-.51h9.35l.98,2.89-.48.2c-1.04-1.35-2.65-2.49-4.42-2.49-1.38,0-1.38.47-1.38,1.61v3.02h.31c1.55,0,2.23-.26,2.76-1.83h.6v4.48h-.6c-.42-1.56-1.21-1.92-2.73-1.92h-.34v3.27c0,.9.09,1.51,1.2,1.51,1.92,0,3.64-1.09,4.85-2.5l.42.22-1.16,2.89h-9.35v-.51h0Z"/>
    <path class="cls-18" d="M138.94,176.36l.66-.33c1.18-.58,1.45-1.3,1.19-2.62l.54-.27,1.98,4.04-.54.26c-.75-1.17-1.66-1.34-2.72-.83l-.79.39,1.54,3.13c.48.98.99,1.1,1.99.61l.23.46-5,2.46-.22-.47c1-.49,1.2-.97.72-1.94l-3.29-6.71c-.48-.97-.98-1.11-1.98-.62l-.23-.46,8.27-4.06,2.13,2.34-.38.41c-1.46-.87-3.42-1.26-5.01-.49-1.03.51-1,.77-.54,1.7l1.45,2.97h0Z"/>
    <path class="cls-18" d="M148.82,172.48l-1.38-5.12,4.15,3.15-2.77,1.97.17.77,3.22-2.29,1.52,1.17c.24.17.5.38.68.62.27.38.19.68-.6,1.28l.3.41,4.43-3.16-.3-.41c-1.15.78-1.74.22-2.67-.49l-7.74-5.89-1.42,1.91,2.22,8.32c.35,1.31.54,2.13-.4,3.29l.3.42,3.36-2.4-.29-.42c-.58.36-1.34.52-1.8-.12-.25-.36-.38-.83-.51-1.24l-.29-.99-.17-.77h0Z"/>
    <path class="cls-18" d="M170.67,157.82c.62-.92.55-1.44-.35-2.05l-6.21-4.17c-.9-.6-1.4-.47-2.02.46l-.43-.29,5.21-7.76,2.96.8-.1.51c-1.7.11-3.55.82-4.54,2.28-.77,1.15-.39,1.41.57,2.05l2.51,1.69.17-.26c.86-1.29,1.02-2.01.02-3.31l.34-.5,3.72,2.5-.34.5c-1.53-.53-2.27-.07-3.11,1.2l-.19.28,2.72,1.82c.75.5,1.3.76,1.92-.15,1.07-1.6,1.12-3.64.63-5.42l.41-.23,1.75,2.57-5.21,7.76-.43-.29h0Z"/>
    <path class="cls-18" d="M170.67,157.82c.62-.92.55-1.44-.35-2.05l-6.21-4.17c-.9-.6-1.4-.47-2.02.46l-.43-.29,5.21-7.76,2.96.8-.1.51c-1.7.11-3.55.82-4.54,2.28-.77,1.15-.39,1.41.57,2.05l2.51,1.69.17-.26c.86-1.29,1.02-2.01.02-3.31l.34-.5,3.72,2.5-.34.5c-1.53-.53-2.27-.07-3.11,1.2l-.19.28,2.72,1.82c.75.5,1.3.76,1.92-.15,1.07-1.6,1.12-3.64.63-5.42l.41-.23,1.75,2.57-5.21,7.76-.43-.29h0Z"/>
    <path class="cls-18" d="M174.58,131.52c-1.04-.33-1.48-.07-1.82,1l-.49-.15,1.68-5.3.49.16c-.33,1.07-.13,1.54.91,1.87l7.13,2.26c1.03.33,1.47.06,1.81-1l.49.15-1.68,5.29-.49-.15c.34-1.07.13-1.54-.9-1.87l-7.13-2.26h0Z"/>
    <path class="cls-18" d="M174.58,131.52c-1.04-.33-1.48-.07-1.82,1l-.49-.15,1.68-5.3.49.16c-.33,1.07-.13,1.54.91,1.87l7.13,2.26c1.03.33,1.47.06,1.81-1l.49.15-1.68,5.29-.49-.15c.34-1.07.13-1.54-.9-1.87l-7.13-2.26h0Z"/>
    <path class="cls-18" d="M40,72.45l-2.95-1.67c-.93-.53-1.34-.76-.72-1.85.72-1.27,1.8-1.71,3.27-.88,1.59.9,1.76,1.99.86,3.6l-.45.8.53.29.66-1.16c1.09-1.93,2.2-4.49-.29-5.89-1.34-.76-3.25-.33-4.96,2.7l-2.74,4.86.44.25c.55-.97,1.03-1.15,1.98-.61l6.51,3.67c.95.54,1.05,1.04.5,2.01l.45.25,2.73-4.83-.45-.25c-.55.97-1.04,1.14-1.99.61l-2.85-1.61-.53-.29h0Z"/>
    <path class="cls-18" d="M45.03,66.38l-2.91-4.44,4.93,1.71-2.02,2.73.41.68,2.35-3.18,1.81.64c.28.09.6.21.83.38.38.28.4.58-.16,1.4l.41.3,3.23-4.38-.41-.3c-.85,1.11-1.6.75-2.69.36l-9.19-3.19-.76,2.25,4.7,7.22c.74,1.14,1.18,1.85.65,3.25l.41.3,2.45-3.32-.41-.3c-.44.52-1.12.91-1.76.44-.35-.25-.62-.67-.86-1.02l-.58-.85-.41-.68h0Z"/>
    <path class="cls-18" d="M53.73,53.89l-.21.2-2.28-2.43c-.6-.64-.84-.96-.09-1.66,1.21-1.13,2.25-1.34,3.32-.2,1.13,1.2,1.13,2.34-.73,4.09l.28.73c.48-.44,1.03-.73,3.08.09l1.99.79c.46.17.91.38,1.38.5l2.8-2.62-.35-.37c-1.04.84-2.08.5-3.22.13l-1.76-.65c-.54-.19-1.09-.42-1.67-.33.9-1.22,1.44-2.84.28-4.08-1.13-1.2-3-1.14-4.68.43l-4.87,4.56.35.37c.81-.76,1.33-.78,2.07.01l5.12,5.46c.74.79.69,1.3-.12,2.07l.35.38,4.05-3.8-.35-.37c-.81.76-1.33.78-2.07-.01l-2.38-2.53-.28-.73h0Z"/>
    <path class="cls-18" d="M53.73,53.89l-.21.2-2.28-2.43c-.6-.64-.84-.96-.09-1.66,1.21-1.13,2.25-1.34,3.32-.2,1.13,1.2,1.13,2.34-.73,4.09l.28.73c.48-.44,1.03-.73,3.08.09l1.99.79c.46.17.91.38,1.38.5l2.8-2.62-.35-.37c-1.04.84-2.08.5-3.22.13l-1.76-.65c-.54-.19-1.09-.42-1.67-.33.9-1.22,1.44-2.84.28-4.08-1.13-1.2-3-1.14-4.68.43l-4.87,4.56.35.37c.81-.76,1.33-.78,2.07.01l5.12,5.46c.74.79.69,1.3-.12,2.07l.35.38,4.05-3.8-.35-.37c-.81.76-1.33.78-2.07-.01l-2.38-2.53-.28-.73h0Z"/>
    <path class="cls-18" d="M116.51,27.91l.63,3.15-.58.12c-.67-1.21-1.95-2.75-3.43-2.89l-.59,8.79c-.07,1.09.29,1.45,1.4,1.52l-.04.51-5.54-.37.04-.51c1.11.07,1.52-.24,1.59-1.32l.59-8.79c-1.56.08-2.85,1.21-3.75,2.41l-.56-.2.97-3.04,9.27.62h0Z"/>
    <path class="cls-18" d="M116.51,27.91l.63,3.15-.58.12c-.67-1.21-1.95-2.75-3.43-2.89l-.59,8.79c-.07,1.09.29,1.45,1.4,1.52l-.04.51-5.54-.37.04-.51c1.11.07,1.52-.24,1.59-1.32l.59-8.79c-1.56.08-2.85,1.21-3.75,2.41l-.56-.2.97-3.04,9.27.62h0Z"/>
    <path class="cls-18" d="M63.24,39.13l2.47,2.06-.38.46c-1.28-.53-3.24-.92-4.48-.09l5.07,7.2c.62.89,1.14.95,2.05.3l.3.42-4.55,3.2-.29-.42c.92-.64,1.04-1.15.41-2.03l-5.07-7.2c-1.16,1.04-1.46,2.73-1.4,4.23l-.56.2-1.16-2.97,7.6-5.34h0Z"/>
    <path class="cls-18" d="M79.9,41.43c.48.98.97,1.12,1.98.63l.23.46-5,2.42-.22-.46c1-.49,1.2-.97.73-1.94l-3.55-7.31h-.03s1.26,10.59,1.26,10.59l-.5.24-7.43-7.23h-.03s2.76,5.69,2.76,5.69c1.09,2.23,1.35,2.45,2.65,1.97l.22.46-3.53,1.72-.22-.46c1.11-.84,1.25-1.09.15-3.34l-2.61-5.37c-.51-1.05-1.04-1.08-1.97-.62l-.22-.46,4.09-1.99,5.34,5.32-.82-7.51,3.98-1.93.22.46c-.97.56-1.25.88-.73,1.94l3.27,6.72h0Z"/>
    <path class="cls-18" d="M83.64,41.45c1.08-.28,1.37-.71,1.1-1.75l-1.86-7.24c-.27-1.05-.73-1.29-1.81-1.01l-.13-.49,9.06-2.33,1.67,2.56-.41.32c-1.34-1.05-3.19-1.76-4.91-1.32-1.34.34-1.22.79-.93,1.91l.75,2.93.3-.08c1.5-.39,2.1-.81,2.21-2.46l.58-.15,1.12,4.34-.58.15c-.8-1.41-1.65-1.56-3.12-1.18l-.33.08.82,3.17c.22.87.47,1.43,1.53,1.16,1.86-.48,3.26-1.96,4.08-3.63l.46.11-.41,3.09-9.06,2.33-.12-.5h0Z"/>
    <path class="cls-18" d="M103.48,35.13l-.43-5.16c-.11-1.32-.3-2.05-1.84-2.06l-.04-.51,4.06-.34.04.51c-1.45.37-1.54.97-1.42,2.33l.73,8.61-1.4.12-6.96-8.27.5,5.93c.14,1.69.36,1.99,2.01,2.2l.04.51-4.37.37-.05-.51c1.47-.35,1.71-.84,1.58-2.26l-.6-7.11c-.48-.5-1.16-.83-1.85-.91l-.04-.51,3.93-.33,6.12,7.41h0Z"/>
    <path class="cls-18" d="M124.2,41.24c3.45.92,6.24-1.36,7.05-4.39.89-3.31-.58-6.21-3.95-7.11-3.34-.9-6.1,1.24-6.95,4.43-.88,3.29.59,6.19,3.85,7.07l.08-.6h0c-1.62-.43-2.3-2.14-1.29-5.9.97-3.63,2.52-4.85,4.24-4.39,1.6.43,2.42,2.05,1.39,5.91-.55,2.04-1.61,5.11-4.33,4.38"/>
    <path class="cls-18" d="M135.63,38.36l.68.29c1.21.52,1.93.25,2.76-.81l.56.23-1.77,4.14-.55-.24c.4-1.33-.07-2.13-1.15-2.6l-.81-.35-1.37,3.21c-.43,1-.19,1.47.83,1.91l-.2.47-5.12-2.19.2-.47c1.02.44,1.51.28,1.94-.72l2.94-6.87c.43-1,.2-1.46-.82-1.9l.2-.47,8.46,3.63-.38,3.14-.57-.02c-.29-1.68-1.27-3.41-2.9-4.1-1.05-.45-1.24-.26-1.65.69l-1.3,3.04h0Z"/>
    <path class="cls-18" d="M142.28,47.83c.92.64,1.43.58,2.05-.31l4.28-6.12c.63-.89.5-1.39-.41-2.03l.29-.42,7.66,5.36-.86,2.94-.51-.11c-.08-1.7-.74-3.57-2.19-4.58-1.14-.79-1.4-.41-2.06.53l-1.73,2.48.25.18c1.28.89,1.98,1.07,3.31.08l.5.35-2.57,3.67-.5-.35c.56-1.52.12-2.27-1.13-3.14l-.28-.19-1.88,2.68c-.51.74-.79,1.29.12,1.92,1.57,1.1,3.61,1.2,5.4.74l.23.42-2.61,1.7-7.66-5.36.29-.42h0Z"/>
    <path class="cls-18" d="M159.94,58.49l3.63-3.7c.92-.94,1.36-1.56.36-2.73l.36-.37,2.92,2.85-.36.37c-1.22-.85-1.73-.53-2.69.44l-6.04,6.18-1.01-.99,1.72-10.67-4.17,4.25c-1.18,1.21-1.28,1.57-.35,2.96l-.36.36-3.14-3.07.36-.37c1.22.88,1.75.74,2.75-.28l4.99-5.1c.07-.69-.12-1.42-.51-2l.36-.37,2.81,2.75-1.61,9.47h0Z"/>
    <path class="cls-18" d="M159.6,62.37c.67.9,1.17,1,2.04.36l6-4.46c.87-.65.91-1.16.25-2.06l.41-.3,5.58,7.5-1.75,2.52-.45-.27c.46-1.64.42-3.62-.63-5.03-.82-1.11-1.2-.83-2.12-.15l-2.42,1.81.18.25c.92,1.24,1.54,1.64,3.11,1.12l.36.48-3.6,2.67-.36-.48c1.01-1.27.82-2.12-.09-3.34l-.2-.27-2.63,1.95c-.72.54-1.15.97-.49,1.86,1.15,1.54,3.04,2.28,4.9,2.4l.08.47-3.01.79-5.58-7.5.41-.31h0Z"/>
    <path class="cls-18" d="M172.82,71.88l2.95-1.55c.78-.41,1.15-.55,1.62.35.77,1.47.7,2.53-.69,3.26-1.46.77-2.56.47-3.75-1.8l-.14-.26-.64.34c.3.58.44,1.19-.9,2.94l-1.29,1.72c-.28.39-.61.77-.84,1.19l1.78,3.39.46-.23c-.54-1.22.07-2.14.73-3.14l1.09-1.52c.33-.47.7-.94.76-1.52.94,1.19,2.35,2.14,3.86,1.35,1.46-.77,1.9-2.59.83-4.62l-3.11-5.9-.46.24c.52.99.4,1.49-.56,2l-6.61,3.48c-.96.51-1.45.32-1.96-.67l-.46.24,2.59,4.91.45-.24c-.52-.99-.41-1.49.56-2l3.08-1.62.64-.34h0Z"/>
    <path class="cls-18" d="M181.67,87.48l-.34-.43c1.3-1.94,1.95-3.17,1.49-4.49-.48-1.41-2.32-2.42-6.05-1.14-3.68,1.26-4.68,2.86-4.12,4.49.55,1.62,1.83,1.46,3.19.99,1.21-.41,1.2-.75.89-1.91l.57-.2,1.71,4.98-.57.2c-.55-1.16-.93-1.17-2.04-.79l-2.17.74c-.36-1.02-.42-1.08-1.02-1.91-.49-.68-.91-1.28-1.19-2.08-1.08-3.14.35-5.85,3.5-6.92,2.98-1.02,6.73.04,7.84,3.25.15.44.17.84.18,1.22,0,.37,0,.71.09.97.13.38.53.83.85,1.08l-2.8,1.96h0Z"/>
    <path class="cls-18" d="M185.87,92.78l-.5.1c-.21-.77-.4-.95-.75-.88-.27.05-.43.19-.62.37l-3.01,2.65,3.2,1.21c.29.12.69.25,1.02.19.72-.14.61-.85.57-1.39l.5-.09.77,4.1-.5.09c-.33-1.07-.82-1.38-1.79-1.8l-.39-.17-4.03-1.6-3.4.64c-.99.2-1.34.6-1.12,1.76l-.5.1-1.04-5.49.5-.1c.29.97.42,1.47,1.68,1.23l2.91-.55,4.19-3.8c.63-.56.83-.88.81-1.73l.5-.09,1,5.27h0Z"/>
    <path class="cls-18" d="M40.3,155.59c.71.86,1.21.95,2.05.26l5.79-4.73c.84-.68.86-1.2.16-2.07l.39-.32,5.92,7.24-1.63,2.59-.46-.25c.39-1.65.26-3.63-.86-5-.87-1.07-1.23-.78-2.12-.05l-2.34,1.91.2.25c.98,1.2,1.62,1.56,3.16.98l.38.47-3.47,2.84-.38-.47c.95-1.32.73-2.16-.24-3.33l-.22-.26-2.53,2.07c-.7.57-1.1,1.02-.41,1.88,1.22,1.49,3.15,2.13,5,2.18l.1.46-2.97.92-5.92-7.24.4-.32h0Z"/>
    <path class="cls-18" d="M52.26,168.56c-1.02-.91-.79-1.17-.02-2.04l4.78-5.38c.65-.73.96-1.08,1.85-.28,1.58,1.4,2,3.09-.53,5.94-2.83,3.19-4.63,3.04-6.08,1.76l-.41.44c.74.66,1.46,1.2,2.3,1.5,1.89.7,4.27.28,5.95-1.6,1.82-2.05,1.96-4.4.99-6.32-.39-.77-.97-1.43-1.69-2.07l-4.03-3.59-.34.38c.83.74.9,1.26.18,2.07l-4.97,5.58c-.72.81-1.24.81-2.07.07l-.34.38,4.03,3.59.41-.44h0Z"/>
    <path class="cls-18" d="M71.34,172.7l-.61-.14c0-1.46-.49-3.63-1.82-4.45-.91-.56-1.95-.52-2.54.43-.67,1.08.29,2.07.97,2.86l.62.73c1.3,1.53,2.43,3.25,1.22,5.21-1.11,1.81-3.39,2.14-5.12,1.07-.57-.34-1.05-.8-1.49-1.31-.2-.23-.32-.4-.58-.56-.22-.14-.36-.18-1.43-.3l1.02-3.58.62.15c0,1.73.39,3.99,1.99,4.97.95.58,2.34.51,2.97-.51.67-1.08-.19-2.06-.87-2.84-1.41-1.65-3.21-3.67-1.83-5.91,1.03-1.68,3.05-1.97,4.67-.97.54.33.89.68,1.29,1.16.15.18.28.35.48.47.33.2.94.22,1.32.14l-.88,3.39h0Z"/>
    <path class="cls-18" d="M82.45,174.5l-.47,3.18-.59-.09c-.22-1.36-.9-3.25-2.25-3.87l-3.52,8.07c-.43,1-.22,1.46.81,1.91l-.21.47-5.09-2.22.2-.47c1.02.45,1.51.29,1.95-.71l3.52-8.07c-1.5-.45-3.09.17-4.34,1l-.46-.38,1.94-2.54,8.51,3.71h0Z"/>
    <path class="cls-18" d="M82.27,181.38l3.17-4.26.09,5.22-3.26-.96-.5.62,3.8,1.11.02,1.91c0,.3,0,.63-.08.92-.13.44-.41.57-1.37.33l-.15.49,5.22,1.53.14-.49c-1.33-.43-1.25-1.24-1.27-2.41l-.16-9.73-2.38.06-5.17,6.89c-.82,1.08-1.34,1.74-2.83,1.72l-.14.49,3.96,1.16.14-.49c-.64-.24-1.24-.74-1.02-1.49.13-.42.42-.82.67-1.17l.6-.84.5-.62h0Z"/>
    <path class="cls-18" d="M101.08,189.3c1.11,0,1.5-.34,1.5-1.43v-7.48c0-1.08-.39-1.42-1.51-1.42v-.51h9.35l.98,2.9-.48.2c-1.04-1.35-2.65-2.5-4.42-2.5-1.38,0-1.38.46-1.38,1.62v3.03h.31c1.55,0,2.23-.27,2.76-1.83h.6s0,4.48,0,4.48h-.6c-.42-1.56-1.21-1.93-2.73-1.93h-.34v3.28c0,.9.1,1.5,1.19,1.5,1.92,0,3.65-1.09,4.86-2.49l.42.22-1.16,2.88h-9.35s0-.51,0-.51h0Z"/>
    <path class="cls-18" d="M120.36,180.16l-.56.28c-.92-1.12-2.68-2.48-4.24-2.27-1.06.15-1.84.84-1.68,1.94.18,1.26,1.55,1.41,2.57,1.58l.95.17c1.98.35,3.94.96,4.26,3.24.3,2.1-1.25,3.8-3.26,4.09-.66.1-1.32.05-1.98-.06-.3-.05-.5-.1-.81-.06-.26.04-.4.08-1.3.68l-1.5-3.4.57-.29c1.11,1.33,2.84,2.83,4.7,2.56,1.11-.15,2.13-1.1,1.97-2.28-.18-1.26-1.46-1.47-2.48-1.64-2.14-.37-4.81-.78-5.18-3.39-.27-1.95,1.09-3.46,2.98-3.73.63-.09,1.12-.05,1.73.07.23.04.43.1.66.06.39-.05.87-.43,1.11-.73l1.48,3.17h0Z"/>
    <path class="cls-18" d="M132.16,185.89c3.38-1.13,4.45-4.58,3.45-7.55-1.09-3.24-3.92-4.85-7.23-3.74-3.28,1.1-4.39,4.4-3.34,7.54,1.09,3.23,3.91,4.83,7.12,3.75l-.27-.55h0c-1.59.53-3.1-.51-4.34-4.2-1.19-3.56-.57-5.43,1.11-6,1.58-.52,3.15.36,4.42,4.16.67,2,1.48,5.15-1.19,6.05"/>
    <path class="cls-18" d="M166.71,160.25c.78.76,1.29.73,2.07-.07l.37.36-3.9,3.95-.37-.36c.78-.79.82-1.31.04-2.07l-5.79-5.71-.02.02,4.72,9.55-.39.4-9.42-4.34-.02.02,4.5,4.43c1.77,1.74,2.09,1.86,3.16.98l.36.36-2.76,2.79-.37-.36c.77-1.16.81-1.44-.96-3.19l-4.25-4.2c-.83-.82-1.35-.67-2.07.07l-.36-.36,3.18-3.24,6.81,3.23-3.28-6.81,3.1-3.15.36.36c-.73.85-.88,1.25-.04,2.07l5.32,5.25h0Z"/>
    <path class="cls-18" d="M170.57,157.72c.62-.93.56-1.44-.35-2.05l-6.21-4.17c-.9-.6-1.4-.47-2.02.45l-.42-.28,5.21-7.77,2.96.8-.1.52c-1.7.1-3.55.81-4.53,2.28-.77,1.15-.39,1.4.56,2.05l2.51,1.68.17-.26c.86-1.28,1.02-2,.02-3.31l.33-.5,3.73,2.5-.34.5c-1.53-.52-2.27-.07-3.12,1.2l-.19.28,2.72,1.82c.75.5,1.3.76,1.91-.15,1.07-1.59,1.13-3.63.63-5.42l.41-.23,1.75,2.57-5.22,7.76-.42-.28h0Z"/>
    <path class="cls-18" d="M174.66,141.53l3.15,1.46c.99.46,1.46.25,1.93-.77l.46.22-2.33,5.04-.46-.21c.46-1.01.32-1.51-.67-1.96l-6.79-3.14c-.99-.45-1.46-.25-1.93.77l-.46-.21,2.8-6.05c.96-2.08,2.68-2.85,4.17-2.15,1.55.72,1.65,2.42,1.28,3.89.5-.3,1.09-.3,1.67-.32l1.87-.06c1.2-.08,2.29-.15,2.94-1.32l.46.21-1.61,3.48c-.47.07-.98.05-1.46.06l-2.15.02c-2.15,0-2.6.46-2.87,1.02l-.68-.26.12-.27c1.07-2.32.64-3.38-.85-4.07-1.42-.66-2.31-.08-3,1.43-.43.93-.09,1.13.7,1.51l3.03,1.4.66.3h0Z"/>
    <path class="cls-18" d="M174.48,131.41c-1.04-.33-1.48-.06-1.82,1l-.49-.15,1.68-5.29.49.16c-.34,1.06-.13,1.54.9,1.86l7.13,2.26c1.04.32,1.48.06,1.82-1l.49.15-1.68,5.29-.49-.16c.34-1.06.13-1.54-.9-1.87l-7.13-2.26h0Z"/>
    <path class="cls-18" d="M179.01,118.36l.07.73c-1.6.36-3.44,1.3-3.8,3.03-.48,2.31,2.34,3.44,4.12,3.81,3.67.76,5.57-.74,5.92-2.44.31-1.5-.54-2.68-1.49-3.7l.37-.33c1.62,1.42,2.54,3.1,2.08,5.3-.63,3.02-3.6,4.62-6.51,4.02-3.16-.66-5.78-3.41-5.13-6.55.12-.55.33-.96.53-1.32.2-.36.38-.65.45-.95.08-.4-.02-.8-.12-1.18l-.04-.18,3.54-.21h0Z"/>
    <path class="cls-18" d="M182.6,116.42l-4.84-2.19,5.08-1.2-.24,3.39.71.36.28-3.95,1.87-.42c.28-.08.61-.14.91-.13.46.04.65.28.61,1.28l.51.04.39-5.43-.51-.04c-.13,1.39-.95,1.48-2.08,1.75l-9.47,2.22.56,2.31,7.83,3.59c1.24.57,1.99.93,2.29,2.4l.51.03.3-4.11-.52-.04c-.09.68-.45,1.37-1.25,1.31-.43-.03-.88-.23-1.28-.4l-.95-.41-.71-.36h0Z"/>
    <line class="cls-18" x1="140.49" y1="179.64" x2="140.27" y2="179.2"/>
    <polyline class="cls-18" points="138.18 180.72 138.4 181.16 138.4 181.16 138.4 181.16"/>
    <polyline class="cls-18" points="141.87 181.62 142.91 181.12 142.91 181.12 142.82 180.93"/>
    <path class="cls-18" d="M148.72,172.37s.05-.04.08-.05l-.08.05h0Z"/>
    <path class="cls-18" d="M148.42,178.31l3.36-2.39-.17-.24c-1.06.79-2.17,1.6-3.33,2.44l.14.19h0Z"/>
    <path class="cls-18" d="M158.44,171.17l-.12-.17c-.74.63-1.5,1.26-2.27,1.87l2.39-1.71h0Z"/>
    <polyline class="cls-18" points="157.35 166.45 157.71 166.8 157.71 166.8"/>
    <line class="cls-18" x1="158.29" y1="166.24" x2="157.93" y2="165.89"/>
    <path class="cls-18" d="M183.84,119.78s.02.02.03.04c0-.03.02-.06.03-.09l-.05.05h0Z"/>
    <path class="cls-18" d="M37.9,94.08s.01-.05.01-.07c-.01.02-.02.04-.03.06h.02Z"/>
    <path class="cls-18" d="M45.13,73.6s-.05.08-.07.12c.03-.04.05-.07.08-.11h0Z"/>
    <line class="cls-18" x1="36.1" y1="110.59" x2="36.03" y2="109.75"/>
    <path class="cls-18" d="M48.15,165.03l-.09.1s.1-.04.14-.05c-.02-.02-.03-.03-.05-.04h0Z"/>
    <path class="cls-19" d="M32.61,104.44c0,1.2-.99,2.18-2.21,2.18s-2.21-.97-2.21-2.18.99-2.19,2.21-2.19,2.21.98,2.21,2.19Z"/>
    <path class="cls-19" d="M184.01,104.48c0,1.2-.99,2.19-2.21,2.19s-2.21-.98-2.21-2.19.99-2.18,2.21-2.18,2.21.97,2.21,2.18Z"/>
    <path class="cls-19" d="M100.9,55.02c-.29-.53-.74-.82-1.06-.68-.11.05-.19.14-.23.26-.08.24-.02.61.17.95.29.53.75.82,1.07.68.11-.05.18-.14.23-.26.08-.25.02-.6-.17-.95ZM100.62,55.84c-.15.07-.39-.12-.55-.43-.04-.08-.04-.14-.06-.22,0,0,0,0,0,0,.14.23.33.3.46.35l.04.02c.08.03.14,0,.2-.05,0,0,0,.02,0,.03,0,.14-.02.25-.1.3Z"/>
    <path class="cls-18" d="M97.98,77.63s.37-1.34.82-1.79c0,0-1.05.6-.82,1.79h0Z"/>
    <path class="cls-18" d="M105.58,78.6s.74-2.31,1.34-2.98l-1.34,2.98h0Z"/>
    <path class="cls-19" d="M106.73,54.28c-.38-.19-.83-.48-1.28-.62-.03,0-.05,0-.07-.01-.08-.04-.17-.08-.25-.1-.22-.07-.44-.09-.66-.08-.34-.05-.74-.03-1.24.1-.56.15-.92.14-1.18.24-.15-.02-.2-.07-.28-.06-.09,0-.28.14-.03.51.01.02.03.02.05.03,0,.01.01.03.05.08.07.1.2.13.34.15.03.01.05.02.08.04.05.03.09.06.14.08.02.01.05.03.07.05.11.09.21.2.31.37.11.17.27.36.49.51.17.16.38.31.69.38.81.21,1.2-.09,2.09-.69.3-.18.84-.37,1.53-.43.21-.02.43-.02.66-.01.05.01.11.02.15.03.15.03.26.06.27.03.05-.07-.97-.41-1.81-.54-.04,0-.1-.03-.15-.05ZM104.45,55.44c-1.02.03-1.2-1.15-1.2-1.15,0,0,.23-.21,1.17-.23.94-.02,1.23.23,1.23.23,0,0-.18,1.13-1.21,1.15ZM121.21,76.92c-.48-.95-1.05-1.56-1.66-2.2-1.22-1.3-2.49-2.64-3.18-7.04.09-2.16-.33-4.92-.71-7.36-.3-1.93-.56-3.6-.45-4.39.1-.76-3.9-3.59-8.23-4.33-1.26-.22-2.22-.23-2.98-.13-2.13.19-2.68,1.27-2.92,1.95-.86,0-1.7.1-2.24.22-.24.02-.48.05-.72.09-2.27.5-3.79,1.56-4.3,2.97-.43,1.19-.1,2.55.91,3.84l.33.42-.05-.53c-.03-.33,0-.59.06-.81,0,0,.36-.35,1.11-.46,1.57-.24,3.94.14,5.24.84.43.39.82.83,1.11,1.34,1.72,2.98.49,7.87-.87,9.11l-.69.63c-1.44,1.29-2.39,2.15-3.98,4.6l-.47.74c-.92,1.46-1.17,1.83-2.15,2.24-.03.01-.06.02-.09.04-.18.07-.39.15-.63.23-.2.07-.43.15-.68.23l-.1.04.08.3c.1-.02.18-.02.27-.03h0c.57-.11,1.07-.14,1.56-.18.22-.02.44-.03.65-.06.8-.08,1.58-.26,2.44-.79.14.62.37,1.07.72,1.24.24.11.46.1.62.05.29,0,.51-.11.53-.12l.05-.03.02-.05c.07-.19.27-.38.49-.56-.17.63.03,1.06.25,1.28l.11.11.11-.12s.03-.02.04-.03c0,0,0,0,0,0l.11.11.11-.12c.1-.11.35-.26.65-.43.67-.4,1.58-.99,2.24-1.88.13.9.43,1.71,1.36,2.14l.06.02.06-.02s.09-.03.14-.05c0,0,.01.01.03.02l.06.02.05-.02c1.84-.62,4.04-1.6,4.86-2.81.9,1.17,2.88,1.77,3.83,1.7h.07s.03-.04.03-.04c.05,0,.13.02.18.01h.07s.04-.06.04-.06c.28-.38.21-.76.03-1.14,1.49.95,3.45,1.06,5.03,1.11.44,0,.85.02,1.2.05h.16s0-.03,0-.03c.03,0,.08,0,.11,0h.16s0-.15,0-.15c0-.04.03-1-.25-1.73ZM102.05,57.05c-1.77-.63-2.12-1.18-2.35-1.41-.18-.17-.68-1.62-1.07-1.8,0,0,.34-.26,2.64-.32,0,0,.42,1.94.81,2.69.39.76.9,1.17-.03.84ZM113,74.98c.14,1.06.85,2.2,1.32,3.12-.74-.3-3.84.37-4.06-4.64-.16,3.02-3.41,5.9-4.98,6.14-2.1-1.74-.17-3.97-1.27-2.91-.86,1.18-2.97,2.54-3.32,2.69-.23-.25-.01-.81.76-1.81.07-.96-1.34-.66-1.93.77-.04.04-.32.67-.58.83-.22-.13-.71.1-.94-1.31-1.22.85-3.24,1.19-4.26,1.24,2.51-.86,2.74-1.53,4.4-4.11,1.66-2.59,2.55-3.21,4.28-4.79,1.15-1.05,2.76-5.21,1.66-8.4-.17-.49-.75-1.83-1.13-2.24-.05-.02-.07-.04-.12-.06,1-.15,2.23-.24,2.32-.35,0,0,.02-.01.01-.02,0,0,.03-.01.02-.02-.01,0-.05-.01-.07-.02-.01,0-.03-.02-.05-.02.05.01.1.02.16.03.09-.45-1.76-1.09-2.28-1.76-.72-.95-1.1-2.07-1.4-3.28.33-.67.92-2.79,5.11-1.99,3.88.74,6.82,4.05,7.74,4.75.04,1.67.74,8.98.81,10.44.16,1.02.54,2.85.86,4.04.22,1.8,2.5,3.96,3.71,5.37.4.49.62.89.62.89-3.54.85-6.28-1.22-7.37-2.57ZM103.78,54.25s.1.71.52.76c.58.07.68-.53.58-.79,0,0-.55-.16-1.1.02Z"/>
    <path class="cls-19" d="M137.2,88.92h-62.78v35.53s-.6,14.29,7.42,25.24c7,9.55,24.28,18.97,24.28,18.97,0,0,16.56-9.6,23.55-19.18,8.27-11.35,7.42-25.03,7.42-25.03l.11-35.53ZM126.45,146.72c-8.11,10.49-20.58,17.81-20.58,17.81,0,0-10.3-6.03-17.47-14.03-7.04-7.85-8.54-13.74-9.37-20.24-.4-3.14-.45-5.93-.45-5.93l.05-32.07h53.98l-27.27,25.63,3.2.63-10.14,13.05,3.49.49-11.59,17.28,20.48-20.09-4.08-.63,13.93-14.27-2.38-.71,14.88-13.99v24.53s.76,12.92-6.67,22.53Z"/>
    <path class="cls-10" d="M88.45,100.45c-.19-.16-.56-.79-.41-1.41.16-.61.19-.97-.03-1.54.26.09.78,1.04.82,1.55.04.51.32.71.62.92l.54-2.68.56,2.75s.1-.92.7-1.21c.61-.28.8-.58,1.04-1.14.13.25,0,1.31-.47,1.7-.47.38-.23,1.08-.23,1.08l2.34-1.58-1.57,2.4s.74-.64,1.35-.49c.62.16.97.17,1.54-.07-.08.27-.48.83-1.39.86-.91.03-1.1.61-1.1.61l2.71.58-2.72.58c.13-.09,1.1.25,1.28.72.18.47.55.82,1.11,1.07-.25.13-1.23-.08-1.68-.51-.45-.44-1.12-.26-1.12-.26l1.57,2.32-2.39-1.57c.16.02.55.92.38,1.44-.17.51-.17.97.05,1.54-.27-.09-.77-.68-.85-1.54-.07-.71-.39-.79-.57-.92l-.56,2.67-.56-2.75s-.14.83-.72,1.21c-.58.37-.81.55-1.07,1.12-.12-.25,0-1.07.51-1.69.51-.61.32-1.11.32-1.11l-2.44,1.68,1.56-2.38s-.8.42-1.31.28c-.51-.14-.97-.16-1.54.06.08-.27.82-.83,1.53-.85.72-.02.68-.2.97-.47l-2.7-.55,2.75-.6c-.12.1-1-.19-1.3-.7-.31-.51-.6-.78-1.16-1.02.24-.13,1.29-.01,1.7.44.41.44,1.03.18,1.03.18l-1.52-2.35,2.42,1.65h0Z"/>
    <g>
      <line class="cls-14" x1="115.42" y1="135.18" x2="124.84" y2="135.18"/>
      <path class="cls-14" d="M122.79,135.18l-.5-8.55h-3.87l-.56,8.48M118.85,126.63l-.56,8.55M121.85,126.69l.56,8.49M120.35,126.69v8.42M118.79,127.82h3.12M118.73,128.32h3.18M118.42,133.62h3.8M118.36,134.12h3.99M118.11,126.26h4.37M118.3,126.26h4.36M118.23,126.26h4.37"/>
    </g>
    <g>
      <polygon class="cls-10" points="120.2 118.59 120.69 118.59 120.44 120.92 120.2 118.59 120.2 118.59"/>
      <polygon class="cls-10" points="120.23 126.16 120.79 126.16 120.52 123.87 120.23 126.16 120.23 126.16"/>
      <polygon class="cls-10" points="124.23 122.09 124.21 122.59 121.89 122.35 124.23 122.09 124.23 122.09"/>
      <polygon class="cls-10" points="116.71 122.1 116.7 122.63 119.1 122.41 116.71 122.1 116.71 122.1"/>
      <polygon class="cls-10" points="122.84 119.45 123.24 119.83 121.44 121.41 122.84 119.45 122.84 119.45"/>
      <polygon class="cls-10" points="117.65 124.9 118.04 125.28 119.52 123.47 117.65 124.9 117.65 124.9"/>
      <polygon class="cls-10" points="123.4 124.78 123.04 125.2 121.53 123.34 123.4 124.78 123.4 124.78"/>
      <polygon class="cls-10" points="117.93 119.55 117.57 119.9 119.46 121.49 117.93 119.55 117.93 119.55"/>
      <polygon class="cls-10" points="118.76 119.02 119.22 118.83 119.94 121.08 118.76 119.02 118.76 119.02"/>
      <polygon class="cls-10" points="121.73 125.96 122.25 125.75 121.09 123.69 121.73 125.96 121.73 125.96"/>
      <polygon class="cls-10" points="123.83 120.68 124.01 121.15 121.77 121.83 123.83 120.68 123.83 120.68"/>
      <polygon class="cls-10" points="116.96 123.56 117.15 124.05 119.22 122.97 116.96 123.56 116.96 123.56"/>
      <polygon class="cls-10" points="121.53 118.78 122.04 118.98 120.99 121.13 121.53 118.78 121.53 118.78"/>
      <polygon class="cls-10" points="118.86 125.83 119.37 126.03 119.96 123.77 118.86 125.83 118.86 125.83"/>
      <polygon class="cls-10" points="124.12 123.48 123.95 124 121.82 122.85 124.12 123.48 124.12 123.48"/>
      <polygon class="cls-10" points="117.04 120.72 116.85 121.18 119.15 121.97 117.04 120.72 117.04 120.72"/>
      <polygon class="cls-10" points="118.95 120.4 119.08 120.27 119.7 121.24 118.95 120.4 118.95 120.4"/>
      <polygon class="cls-10" points="121.88 120.36 121.75 120.24 121.26 121.17 121.88 120.36 121.88 120.36"/>
      <polygon class="cls-10" points="118.3 121.16 118.37 121 119.26 121.74 118.3 121.16 118.3 121.16"/>
      <polygon class="cls-10" points="120.99 119.99 120.83 119.93 120.7 120.99 120.99 119.99 120.99 119.99"/>
      <polygon class="cls-10" points="118.01 122.03 118.01 121.86 119.11 122.23 118.01 122.03 118.01 122.03"/>
      <polygon class="cls-10" points="120.09 119.96 119.91 119.96 120.21 120.94 120.09 119.96 120.09 119.96"/>
      <polygon class="cls-10" points="118.07 122.78 118.07 122.95 119.05 122.73 118.07 122.78 118.07 122.78"/>
      <polygon class="cls-10" points="121.09 124.79 120.91 124.82 120.77 123.84 121.09 124.79 121.09 124.79"/>
      <polygon class="cls-10" points="118.39 123.68 118.51 123.81 119.27 123.28 118.39 123.68 118.39 123.68"/>
      <polygon class="cls-10" points="119.07 124.4 119.18 124.53 119.76 123.66 119.07 124.4 119.07 124.4"/>
      <polygon class="cls-10" points="119.93 124.78 120.12 124.83 120.24 123.81 119.93 124.78 119.93 124.78"/>
      <polygon class="cls-10" points="122.92 122.87 122.99 122.7 121.93 122.6 122.92 122.87 122.92 122.87"/>
      <polygon class="cls-10" points="122.6 121.08 122.53 120.92 121.68 121.53 122.6 121.08 122.6 121.08"/>
      <polygon class="cls-10" points="122.86 121.74 122.93 121.91 121.91 122.09 122.86 121.74 122.86 121.74"/>
      <polygon class="cls-10" points="122.69 123.58 122.63 123.75 121.66 123.13 122.69 123.58 122.69 123.58"/>
      <polygon class="cls-10" points="121.99 124.37 121.87 124.49 121.36 123.6 121.99 124.37 121.99 124.37"/>
      <path class="cls-10" d="M120.51,122.76c.22,0,.4-.18.4-.4s-.18-.39-.4-.39-.39.18-.39.39.18.4.39.4h0Z"/>
      <path class="cls-10" d="M120.25,121.83c.29-.15.46-.02.46-.02l.08-.54c-.25-.15-.5-.09-.69,0l.15.56h0Z"/>
      <path class="cls-10" d="M120.26,122.96c.24.15.47,0,.47,0l.09.52c-.25.16-.5.09-.69,0l.13-.52h0Z"/>
      <path class="cls-10" d="M119.96,122.55c-.18-.21-.04-.39-.04-.39l-.52-.12c-.16.25-.1.49-.01.68l.58-.17h0Z"/>
      <path class="cls-10" d="M121.04,122.57c.15-.29-.02-.43-.02-.43l.6-.1c.15.25.08.5-.02.68l-.55-.16h0Z"/>
      <path class="cls-10" d="M120.07,121.89l-.09.1-.49-.2c.03-.21.17-.32.33-.36l.26.46h0Z"/>
      <path class="cls-10" d="M120.85,121.86l.13.11.46-.18c-.03-.21-.2-.36-.36-.39l-.23.46h0Z"/>
      <path class="cls-10" d="M120.89,122.86l.09-.1.53.19c-.03.22-.23.4-.38.43l-.23-.52h0Z"/>
      <path class="cls-10" d="M120.11,122.87l-.1-.09-.49.21c.03.22.21.35.36.38l.22-.49h0Z"/>
      <polygon class="cls-10" points="124.42 122.43 124.42 123.47 127.88 124.19 127.88 121.94 124.42 122.43 124.42 122.43"/>
      <polygon class="cls-10" points="124.44 123.6 127.88 124.37 127.86 124.58 124.43 123.73 124.44 123.6 124.44 123.6"/>
      <polygon class="cls-10" points="124.41 122.29 127.86 121.72 127.87 121.52 124.41 122.16 124.41 122.29 124.41 122.29"/>
    </g>
    <g>
      <path class="cls-14" d="M88.4,122.65h3.39l.75,9.37-2.46-4.54-2.37,4.47.69-9.3h0ZM90.93,123.45l.29-.8M89.32,123.41l-.29-.77M87.9,129.78h4.46M88.14,126.14h3.89M88.34,123.83h3.57M88.94,116.14h2.17l.48,6-1.51-2.9-1.58,2.85.44-5.95h0ZM90.78,120.64l.52-1.65-1.22-1.24-1.34,1.33.48,1.55h0M90.58,118.3l.6-1.11-1.1-1.05-1.22,1.33.64.83M90.54,116.66l.2-.52M89.54,116.66l-.2-.52M88.62,120.7h2.85M88.85,118.37h2.49M88.92,116.9h2.29"/>
      <polygon class="cls-1" points="88.89 116.42 89.01 116.13 91.02 116.13 91.09 116.5 91.3 115.83 88.73 115.83 88.89 116.42 88.89 116.42"/>
      <polygon class="cls-7" points="89.53 115.78 89.53 115.13 90.53 115.13 90.53 115.78 89.53 115.19 90.53 115.19 89.53 115.78 89.53 115.78"/>
      <path class="cls-14" d="M89.78,127.77v-5.18M89.78,122.16v-5.91M90.34,127.77v-5.14M90.34,122.16v-5.99M91.48,131.99v1.51h2.95l.06-1.57h-6.77l-.13,1.63M91.29,129.64l.85-2.46-2.05-2.01-2,2.01c.93,2.04.74,1.59,1.14,2.58.32.8-.49,1.09-.29,1.08.39,0,.38-.55,1.08-.62"/>
      <line class="cls-14" x1="92.54" y1="131.99" x2="92.73" y2="133.49"/>
      <line class="cls-14" x1="86.96" y1="133.49" x2="91.48" y2="133.49"/>
      <g>
        <polygon class="cls-9" points="90.07 127.51 90.07 130.05 90.34 130.21 90.34 133.41 89.83 133.41 89.83 130.21 90.07 130.05 90.07 127.51 90.07 127.51"/>
        <polygon class="cls-10" points="86.52 133.18 86.77 132.99 88.47 132.99 86.83 132.8 86.52 133.18 86.52 133.18"/>
        <path class="cls-10" d="M87.88,133.44c-.17-.1.06-.46-.1-.7.23-.09.4-.26.44-.49.03-.16-.06-.35-.02-.54.02-.09.11-.16.19-.21-.03.33-.07.7.16.93.12.12.25.26.36.39.1.12-.03.25-.09.4-.03.08-.2.22-.02.33-.32-.07-.69.02-.93-.12h0Z"/>
        <path class="cls-10" d="M89.22,133.49l-.03-.23s.28-.02.47-.07c.18-.05.33-.13.43-.13.09,0,.52.08.6.22.45.05.9-.03,1.01.04.04.03.06.1-.06.13-.25.07-.72.03-.72.03h-1.7Z"/>
      </g>
      <path class="cls-14" d="M88.04,127.77h4.14M90.41,127.77l1.51-3.27-1.83-1.86-1.81,1.86,1.44,3.27"/>
      <polygon class="cls-5" points="88.34 122.94 88.4 122.57 91.79 122.57 91.85 123.01 92.04 122.2 88.22 122.2 88.34 122.94 88.34 122.94"/>
    </g>
    <polygon class="cls-15" points="111.98 139.79 112 139.99 113.04 140.16 113.05 140.06 111.98 139.79 111.98 139.79"/>
    <path class="cls-15" d="M111.95,140.91l.02.21,1.07-.07.02-.13h-1.11ZM111.98,141.35l.02.2,1.03-.17.02-.2-1.07.17h0Z"/>
    <polygon class="cls-1" points="103.07 146.59 115.73 147.71 115.73 145.59 103.07 144.47 103.07 146.59 103.07 146.59"/>
    <path class="cls-13" d="M103.07,146.28l4.29.34M107.35,145.18l-4.22-.34M105.5,144s-.03-1.71-.06-3.21c-.03-1.4.11-2.97.74-3.82.44-.5,1.43-.75,1.87-.81.34-.94,2.12-.75,2.12-.75.32.25.38-.12.69.63,0,0,.93.24,1.24,1.06.62.38,1.44,1.5,1.5,2.25.75.93.75,1.56.19,2.62,0,0-.21.34-.26.42.04.22-.04.55-.04.55v.23"/>
    <path class="cls-1" d="M113.96,140.4v.49s3.16.08,3.33.08c.15-.26-.03-.49-.03-.49l-3.29-.09h0ZM115.98,144.28l-.03-.97-2.37-.19v.87l2.4.28h0ZM115.95,143.28l.44-2.09.06,1.56-.47,1.53-.03-1h0Z"/>
    <path class="cls-4" d="M116.92,140.03h-.34c-.21.1-.14,1.08,0,1.27h.39c-.14-.23-.22-.99-.06-1.27h0Z"/>
    <polyline class="cls-1" points="113.58 143.09 114.42 141.13 116.38 141.16"/>
    <polyline class="cls-6" points="115.76 147.56 116.56 143.48 116.56 142.85 115.72 145.66"/>
    <path class="cls-1" d="M107.98,136.24s.07-.06,0,0c-.6.61-.8,2.38-.84,3.98-.04,1.54.05,2.9.05,2.9M110.23,135.56c-.37.5-1.77,3.18-.25,8.79"/>
    <path class="cls-2" d="M113.48,139.66c-.06.25-.17,2.01-.02,2.25.5-.54.81-1.5.02-2.25h0Z"/>
    <path class="cls-1" d="M103.06,144.48l1.55-1.34.9.03-.03-.37M104.65,140.95l.41-.62-1.84-.07c-.22.1-.25,1-.13,1.13l1.56.09v-.5h.72-.72v2.12"/>
    <path class="cls-4" d="M104.09,139.92h.53c-.31.28-.41,1.84-.28,1.94h-.56c-.19-.1-.17-1.73.31-1.94h0Z"/>
    <path class="cls-13" d="M103.09,140.58h.66M105.36,140.33h-.31M105.68,138.22c.61-.22,1.65-.17,1.65-.17"/>
    <polygon class="cls-2" points="111.38 144.92 112.57 144.04 113.31 143.51 113.47 143.51 113.5 144.07 114.09 144.14 113.29 145.03 111.38 144.92 111.38 144.92"/>
    <path class="cls-8" d="M116.91,140.18s-.06.15.04.47"/>
    <g>
      <path class="cls-10" d="M109.5,106.37c0-.11-.04-.2-.09-.29.05-.52.32-3.21-.42-5.88,0,0-.41-1.32-.51-1.3-.09.03.14.75.26,1.33.44,2.13.18,5.05.12,5.73-.13.08-.22.24-.22.41,0,.14.05.27.14.36,0,0,.02,0,.02.02-.23,1.17-.73,2.92-1.31,3.38,0,0-.66.04-.66.11,0,.08.45.11.45.11.13,0,.64.04,1.23-1.28.48-1.06.69-1.92.76-2.28.03-.02.06-.03.09-.06.09-.09.14-.22.14-.36h0Z"/>
      <path class="cls-10" d="M107.09,104.96c.65,0,1.17-.53,1.17-1.17s-.53-1.17-1.17-1.17-1.17.53-1.17,1.17.53,1.17,1.17,1.17h0Z"/>
      <path class="cls-10" d="M108.56,102.1c-1.5-1.41-2.91-2.27-3.41-2.56-.02-.09-.06-.18-.13-.25-.1-.1-.24-.15-.38-.15s-.28.05-.38.15c-.32-.06-.94-.16-1.2-.13-.07,0-.12.06-.12.12,0,.07.04.14.1.15.58.08.82.21,1.07.29.02.11.06.21.13.28.1.1.24.16.39.16.06,0,.13-.01.19-.04,1.69.62,3.41,2.01,3.43,2.03.07.06.46.34.52.28.06-.07-.14-.27-.2-.33h0Z"/>
      <path class="cls-10" d="M107.36,100.58c-.06-.07-.46.17-.53.23-1.8,1.6-3.11,3.25-3.4,3.7-.21.06-.37.25-.37.5,0,.1.03.19.07.26-.2.4-.58,1.26-.64,2.01,0,.07,0,.91.06.92.19.03-.03-.41.11-.98,0-.01.3-.94.84-1.7,0,0,.02,0,.03,0,.12,0,.23-.04.32-.13.1-.1.15-.24.15-.39,0-.03-.01-.06-.02-.1.7-1.42,2.49-3.49,2.5-3.51.07-.07.94-.76.87-.83h0Z"/>
      <path class="cls-10" d="M113.05,102.83c-.02-.09-.71-.56-1.33-.8-.29-.11-1.9-.67-4.71-.67-3.07,0-4.8.76-5.26,1.03-.74.45-.99.93-.99.93,0,0,.72-.39,1.05-.57,1.11-.64,2.82-.78,5.2-.78,2.59,0,4.75.44,5.07.56.32.13.97.31.97.31h0Z"/>
    </g>
    <polygon class="cls-10" points="109.27 138.43 109.35 138 107.31 137.98 107.26 138.41 109.27 138.43 109.27 138.43"/>
    <path class="cls-10" d="M104.74,140.33s0-.29-.09-.38c0,0-.23.02-.33,1.02-.09.88.02.89.02.89.22-.06.28-.37.28-.37l-.13-.03s-.05-.42.01-.73c.07-.3.12-.46.24-.4h0Z"/>
    <polygon class="cls-3" points="104.5 140.32 103.9 140.32 104.01 140.02 104.59 140 104.5 140.32 104.5 140.32"/>
    <polygon class="cls-19" points="105.18 142.45 105.18 141.17 104.9 141.17 104.9 142.88 105.36 142.88 105.36 142.45 105.18 142.45 105.18 142.45"/>
    <path class="cls-19" d="M107.61,138.93c.08,0,.13-.06.13-.13s-.05-.13-.13-.13c-.07,0-.13.05-.13.13s.06.13.13.13h0Z"/>
    <path class="cls-19" d="M108.92,138.9c.08,0,.13-.06.13-.13,0-.08-.06-.13-.13-.13-.07,0-.13.06-.13.13,0,.07.06.13.13.13h0Z"/>
    <path class="cls-19" d="M109.04,137.69c.07,0,.13-.06.13-.13s-.06-.13-.13-.13-.13.06-.13.13.06.13.13.13h0Z"/>
    <path class="cls-19" d="M107.8,137.72c.07-.04.13-.06.13-.13,0-.08-.06-.13-.13-.13s-.13.06-.13.13c0,.07.07.16.13.13h0Z"/>
    <path class="cls-10" d="M105.5,144.5l1.83.16.41-.49s-.6-.84-.57-1.39l.1,1.7-.09-.25-1.67-.14v.42h0Z"/>
    <path class="cls-10" d="M109.36,144.83l.61-.49s-.29-.95-.38-1.68l-.09,1.14-.07.51-.07.52h0Z"/>
    <path class="cls-19" d="M112.38,143.17c.08,0,.13-.06.13-.13,0-.07-.06-.13-.13-.13s-.13.06-.13.13c0,.07.06.13.13.13h0Z"/>
    <path class="cls-19" d="M112.29,142.58c.07,0,.13-.06.13-.13s-.06-.13-.13-.13-.14.06-.14.13.06.13.14.13h0Z"/>
    <path class="cls-19" d="M112.19,141.99c.08,0,.14-.06.14-.13s-.06-.13-.14-.13c-.07,0-.13.06-.13.13s.06.13.13.13h0Z"/>
    <path class="cls-19" d="M112.29,139.65c.07,0,.13-.06.13-.13s-.06-.13-.13-.13-.14.06-.14.13.06.13.14.13h0Z"/>
    <path class="cls-19" d="M112.38,139.06c.08,0,.13-.06.13-.13s-.06-.13-.13-.13-.13.06-.13.13.06.13.13.13h0Z"/>
    <path class="cls-19" d="M112.47,138.49c.07,0,.13-.06.13-.13s-.06-.13-.13-.13-.13.06-.13.13.06.13.13.13h0Z"/>
    <path class="cls-19" d="M114.22,145.06c.24,0,.44-.04.44-.09,0-.05-.2-.09-.44-.09s-.44.04-.44.09c0,.05.2.09.44.09h0Z"/>
    <path class="cls-19" d="M114.32,144.6c.12,0,.22-.04.22-.09s-.1-.09-.22-.09c-.13,0-.22.04-.22.09s.1.09.22.09h0Z"/>
    <path class="cls-19" d="M113.13,144.91c.12,0,.22-.04.22-.09,0-.05-.1-.09-.22-.09s-.22.04-.22.09c0,.05.1.09.22.09h0Z"/>
    <path class="cls-19" d="M112.1,144.81c.12,0,.22-.04.22-.09,0-.05-.1-.09-.22-.09s-.22.04-.22.09c0,.05.1.09.22.09h0Z"/>
    <path class="cls-10" d="M117.09,140.99c0,.17-.04.29-.08.3-.07,0-.14-.28-.16-.62-.02-.35.02-.63.09-.63.05,0,.1.17.13.45h-.11s-.07.15.03.48l.1.02h0Z"/>
    <g>
      <path class="cls-2" d="M107.12,110.3c1.17,0,2.11-2.89,2.11-6.44s-.95-6.44-2.11-6.44-2.12,2.88-2.12,6.44.95,6.44,2.12,6.44h0Z"/>
      <path class="cls-2" d="M113.56,103.79c0-1.21-2.97-2.11-6.44-2.11s-6.44.94-6.44,2.11,2.88,2.12,6.44,2.12,6.44-.95,6.44-2.12h0ZM112.01,107.98c.76-.89-.81-3.48-3.52-5.8-2.7-2.31-5.51-3.47-6.27-2.58-.76.9.81,3.48,3.51,5.8,2.7,2.31,5.51,3.47,6.27,2.58h0ZM111.38,98.96c-.87-.78-3.5.74-5.86,3.39-2.38,2.66-3.59,5.44-2.71,6.22.87.78,3.5-.74,5.87-3.4,2.37-2.65,3.58-5.43,2.71-6.21h0Z"/>
    </g>
    <path class="cls-19" d="M112.07,138.25s-.44-1.36-1.63-1.42h-.05s-.02.05-.02.05l-.11.26h0s-.06.35-.06.35l-.02.08h.08c.99.08,1.26.35,1.5.59.06.06.12.12.19.17l.19.15-.07-.23ZM111.92,138.29s-.07-.16-.17-.35c-.23-.21-.57-.43-1.39-.5l-.02.08-.07-.09s.05.01.09.01l.05-.25h0s0,0,0,0h0s.08-.18.08-.18c-.02,0-.03-.02-.05-.02l.08-.05-.03.06c.68.06,1.07.57,1.27.94.04.04.08.07.12.11.06.06.11.12.17.16l-.12.08Z"/>
    <path class="cls-19" d="M111.92,139.88s-.55-.92-1.95-.94h-.08s0,.07,0,.07v.29s0,0,0,0h0s.02.28.02.28v.07s.07,0,.07,0c.6.06,1.48.2,1.86.32l.19.06-.1-.17ZM111.79,139.96s-.05-.08-.14-.17c-.43-.11-1.08-.21-1.59-.26v.06s-.06-.07-.06-.07c.02,0,.04,0,.06,0l-.02-.21h0s0,0,0,0h0s0-.2,0-.2c-.02,0-.05-.01-.07-.01l.08-.07v.08c.88.03,1.38.44,1.6.68.08.02.17.04.23.06l-.09.11Z"/>
    <path class="cls-19" d="M110.92,137.01s-.05-.01-.07-.02c.02,0,.05.01.07.02Z"/>
    <path class="cls-19" d="M111.66,142.74s.02.09.03.14c-.01-.05-.02-.09-.03-.14Z"/>
    <path class="cls-19" d="M111.85,141.35s-1.15.43-1.68.44h-.09s.01.09.01.09l.09.61v.07s.08,0,.08,0c.4-.02,1.34-.38,1.68-1.1l.08-.17-.18.07ZM110.33,142.39v.08s-.07-.06-.07-.06c.02,0,.05-.01.07-.01l-.06-.45s-.06,0-.08,0l.07-.09v.08c.42-.03,1.07-.23,1.42-.36.05-.06.11-.11.14-.18l.1.1s-.1.04-.24.08c-.36.5-.99.77-1.34.81Z"/>
    <g>
      <path class="cls-16" d="M89.44,86.66c-.45.55-.81,1.05-2.51,1.03-1.3-.02-1.9-.39-2.5-.81-.62.62-1.38.77-2.21.77-1.59,0-3.43-1.14-3.43-3.74,0-1.55.8-2.73,2.22-2.68.78.03,1.39.18,1.92.55.28-.22.87-.59,1.5-.59,2.22,0,3.01,1.98,3.46,2.86.27.53.71,1.73,1.56,2.61h0Z"/>
      <path class="cls-16" d="M98.35,86.77c-.45.55-.53.93-2.22.92-1.14,0-1.84-.11-2.39-.55-.35.34-1.74.55-2.57.48-1.93-.17-2.89-2.59-3.39-3.56-.26-.5-.62-1.37-1.3-2.02.31-.33,1.49-.85,2.59-.85,1.35,0,2.08.35,2.54.7.27-.22.99-.7,1.61-.7,2.2,0,3,1.98,3.44,2.86.28.55.77,1.84,1.68,2.72h0Z"/>
      <path class="cls-16" d="M107.18,86.77c-.45.55-.52.93-2.21.92-1.13,0-1.84-.11-2.39-.55-.36.34-1.74.55-2.57.48-1.93-.17-2.9-2.59-3.39-3.56-.26-.5-.62-1.37-1.3-2.02.31-.33,1.49-.85,2.59-.85,1.36,0,2.08.35,2.53.7.28-.22,1-.7,1.62-.7,2.2,0,2.99,1.98,3.45,2.86.28.55.77,1.84,1.68,2.72h0Z"/>
      <path class="cls-16" d="M116.02,86.77c-.45.55-.53.93-2.22.92-1.13,0-1.84-.11-2.39-.55-.35.34-1.73.55-2.57.48-1.93-.17-2.89-2.59-3.39-3.56-.25-.5-.62-1.37-1.3-2.02.31-.33,1.49-.85,2.59-.85,1.35,0,2.08.35,2.53.7.28-.22,1-.7,1.62-.7,2.2,0,3,1.98,3.45,2.86.28.55.77,1.84,1.68,2.72h0Z"/>
      <path class="cls-16" d="M124.84,86.77c-.45.55-.52.93-2.21.92-1.14,0-1.84-.11-2.4-.55-.35.34-1.73.55-2.57.48-1.93-.17-2.89-2.59-3.38-3.56-.26-.5-.62-1.37-1.3-2.02.32-.33,1.49-.85,2.6-.85,1.35,0,2.08.35,2.53.7.28-.22,1-.7,1.62-.7,2.2,0,2.99,1.98,3.45,2.86.27.55.77,1.84,1.67,2.72h0Z"/>
      <path class="cls-16" d="M133.05,86.32c-.18.72-.52,1.38-1.58,1.37-1.14,0-1.84-.11-2.39-.55-.36.34-1.73.55-2.57.48-1.93-.17-2.89-2.59-3.38-3.56-.26-.5-.62-1.37-1.3-2.02.31-.33,1.49-.85,2.6-.85,1.35,0,2.08.35,2.54.7.27-.22.99-.7,1.61-.7,2.2,0,2.91,1.45,3.8,2.68.36.5.87,1.73.69,2.45h0Z"/>
    </g>
    <g>
      <path class="cls-11" d="M118.08,81.85c.93.59,1.23,1.57,2.42,2.15-.8-1.14-2.05-2.32-.9-2.73-.53-.26-1.33.46-1.53.58h0Z"/>
      <path class="cls-11" d="M120.12,87.11c-.67-.65-1.08-1.9-2.37-2.23,1.03.94,1.81,2.06.77,2.71.66-.03,1.16-.2,1.6-.49h0Z"/>
      <path class="cls-11" d="M126.92,81.85c.92.59,1.23,1.57,2.42,2.15-.81-1.14-2.05-2.32-.9-2.73-.54-.26-1.04.39-1.53.58h0Z"/>
      <path class="cls-11" d="M128.96,87.11c-.67-.65-1.08-1.9-2.37-2.23,1.02.94,1.83,2.11.79,2.76.67-.03,1.14-.24,1.58-.53h0Z"/>
      <path class="cls-11" d="M82.86,81.78c.92.59,1.16,1.55,2.35,2.13-.8-1.14-1.96-2.27-.81-2.69-.64-.1-1.24.37-1.54.56h0Z"/>
      <path class="cls-11" d="M84.38,86.88c-.67-.65-1.16-2.09-2.45-2.41,1.02.95,1.92,2.45.88,3.1.8-.03,1.23-.36,1.57-.69h0Z"/>
      <path class="cls-11" d="M91.58,81.87c.92.59,1.23,1.55,2.42,2.13-.8-1.14-1.96-2.32-.8-2.73-.54-.26-1.13.42-1.62.61h0Z"/>
      <path class="cls-11" d="M93.62,87.11c-.67-.65-1.08-1.9-2.37-2.23,1.03.94,1.81,2.04.77,2.69.67-.03,1.16-.18,1.6-.46h0Z"/>
      <path class="cls-11" d="M100.41,81.85c.92.59,1.23,1.57,2.42,2.15-.8-1.14-2.05-2.32-.9-2.73-.53-.15-1.04.39-1.52.58h0Z"/>
      <path class="cls-11" d="M102.46,87.11c-.67-.65-1.08-1.9-2.37-2.23,1.03.94,1.85,2.04.81,2.69.66-.03,1.12-.18,1.56-.46h0Z"/>
      <path class="cls-11" d="M109.25,81.85c.92.59,1.22,1.57,2.42,2.15-.81-1.14-2.06-2.32-.9-2.73-.53-.26-1.04.39-1.52.58h0Z"/>
      <path class="cls-11" d="M111.29,87.11c-.67-.65-1.08-1.9-2.37-2.23,1.03.94,1.81,2.04.77,2.69.67-.03,1.16-.18,1.6-.46h0Z"/>
    </g>
    <path class="cls-19" d="M86.52,86.72c.95.09,1.91-.08,2.02-.2-.14.57-.95.8-2.22.71-1.36-.09-2.19-1.36-2.39-1.59-.44-.5-.33-3.1-2.9-4.15,3.15,0,2.97,4.99,5.48,5.23h0Z"/>
    <path class="cls-19" d="M96.19,86.85c.59,0,1.37-.26,1.48-.38-.14.57-.77.9-1.68.9-1.36,0-3.22-1.77-3.42-2-.23-.26-.61-1.32-2.54-1.32-1.77,0-1.74-2.09-2.3-2.09.21-.13.75-.46,1.4-.46,3.14,0,4.53,5.36,7.05,5.36h0Z"/>
    <path class="cls-19" d="M105.02,86.85c.59,0,1.37-.26,1.48-.38-.14.57-.77.9-1.68.9-1.36,0-3.22-1.77-3.42-2-.23-.26-.6-1.32-2.54-1.32-1.77,0-1.74-2.09-2.3-2.09.21-.13.76-.46,1.41-.46,3.14,0,4.53,5.36,7.05,5.36h0Z"/>
    <path class="cls-19" d="M113.85,86.85c.59,0,1.38-.26,1.48-.38-.13.57-.77.9-1.67.9-1.36,0-3.22-1.77-3.42-2-.23-.26-.61-1.32-2.54-1.32-1.77,0-1.74-2.09-2.3-2.09.21-.13.75-.46,1.4-.46,3.15,0,4.53,5.36,7.05,5.36h0Z"/>
    <path class="cls-19" d="M122.69,86.85c.59,0,1.38-.26,1.48-.38-.14.57-.77.9-1.68.9-1.36,0-3.22-1.77-3.42-2-.23-.26-.61-1.32-2.54-1.32-1.77,0-1.74-2.09-2.3-2.09.21-.13.76-.46,1.4-.46,3.15,0,4.53,5.36,7.05,5.36h0Z"/>
    <path class="cls-19" d="M131.53,86.85c.59,0,.71.52-.2.52-1.36,0-3.22-1.77-3.42-2-.22-.26-.6-1.32-2.54-1.32-1.77,0-1.74-2.09-2.3-2.09.21-.13.75-.46,1.41-.46,3.15,0,4.53,5.36,7.05,5.36h0Z"/>
    <path class="cls-2" d="M112.61,137.87c.26.29.58.77.69,1.27-.09.19-.26,3.28-.02,3.66l-1,.87c-.71-1.82-.43-5.56-.07-6.13,0,0,.18.09.39.33h0Z"/>
    <path class="cls-19" d="M111.96,143.71c-.18-.56-.31-1.15-.38-1.84v-.1s-.08.06-.08.06c-.37.34-.87.54-1.19.57l-.08-.51c.35-.02.89-.17,1.28-.31h.03s0-.05,0-.05c-.04-.56-.05-1.14,0-1.72v-.04s-.04-.01-.04-.01c-.41-.09-1-.18-1.47-.23l-.02-.24v-.24c.59.01,1.08.18,1.47.51l.07.06v-.09c.06-.61.13-1.14.2-1.55v-.03s-.01-.02-.01-.02c-.24-.23-.59-.44-1.41-.51l.05-.28.09-.22c.5.03.92.31,1.24.84l.06.1.02-.12c.05-.25.1-.45.14-.59h0c-.02-.34-.63-.82-.98-.93-.17-.05-.25,0-.28.04-.77.98-.87,2.69-.82,3.95.06,1.59.39,3.07.69,3.83v.03h.04l.88.05h.02s.01,0,.01,0l.48-.41v-.03ZM110.86,136.42c.08,0,.13.06.13.13s-.06.13-.13.13-.13-.06-.13-.13.06-.13.13-.13ZM110.42,137.75c.07,0,.13.06.13.13s-.06.13-.13.13c-.08,0-.13-.06-.13-.13s.06-.13.13-.13ZM110.33,138.51c.07,0,.13.06.13.13s-.06.13-.13.13c-.08,0-.13-.06-.13-.13s.05-.13.13-.13ZM110.2,139.82c.07,0,.13.06.13.13,0,.07-.06.13-.13.13s-.13-.06-.13-.13c0-.07.05-.13.13-.13ZM110.24,140.56c.08,0,.13.06.13.13,0,.07-.06.13-.13.13s-.13-.06-.13-.13c0-.07.06-.13.13-.13ZM110.27,141.37c.07,0,.13.06.13.13s-.06.13-.13.13-.13-.06-.13-.13.06-.13.13-.13ZM110.43,142.78c0-.08.06-.13.13-.13.08,0,.14.06.14.13s-.06.13-.14.13c-.07,0-.13-.06-.13-.13ZM110.56,143.29c0-.07.06-.13.14-.13s.13.06.13.13-.06.13-.13.13-.14-.06-.14-.13ZM110.83,143.99c-.07,0-.13-.06-.13-.13,0-.07.06-.13.13-.13.08,0,.13.06.13.13,0,.08-.06.13-.13.13Z"/>
  </g>
  <g>
    <path class="cls-20" d="M245.09,79.93c-5.41,0-9.31-1.06-11.7-3.17-2.39-2.11-3.59-5.58-3.59-10.4v-14.51c0-1.21-.12-2.15-.36-2.81-.24-.66-.71-1.12-1.4-1.38-.69-.26-1.73-.39-3.12-.39v-2.24h17.52v2.24c-1.39,0-2.44.13-3.15.39-.71.26-1.18.74-1.4,1.43-.23.69-.34,1.7-.34,3.02v13.31c0,2.25.26,4.13.78,5.64.52,1.51,1.42,2.64,2.7,3.38,1.28.75,3.07,1.12,5.36,1.12,3.26,0,5.63-.74,7.12-2.21,1.49-1.47,2.24-4,2.24-7.57v-11.81c0-1.84-.1-3.24-.31-4.21-.21-.97-.66-1.63-1.35-1.98-.69-.35-1.77-.52-3.22-.52v-2.24h13.52v2.24c-1.49,0-2.59.17-3.3.52-.71.35-1.16.99-1.35,1.92-.19.94-.29,2.31-.29,4.11v11.65c0,4.82-1.1,8.43-3.3,10.84-2.2,2.41-5.88,3.61-11.05,3.61Z"/>
    <path class="cls-20" d="M271.66,79.72c-1.28,0-2.28-.36-2.99-1.09-.71-.73-1.07-1.68-1.07-2.86s.36-2.12,1.07-2.83,1.72-1.07,3.04-1.07,2.31.36,2.99,1.07c.68.71,1.01,1.66,1.01,2.83s-.35,2.13-1.04,2.86c-.69.73-1.7,1.09-3.02,1.09Z"/>
    <path class="cls-20" d="M285.29,79.88h-2.24l-.47-11.23h2.6c.55,2.22,1.17,3.93,1.85,5.12.68,1.2,1.5,2.02,2.47,2.47.97.45,2.15.68,3.54.68,1.11,0,2.16-.15,3.15-.44.99-.29,1.79-.78,2.42-1.46.62-.68.94-1.59.94-2.73,0-1.49-.36-2.71-1.09-3.67-.73-.95-1.67-1.77-2.83-2.44-1.16-.68-2.42-1.33-3.77-1.95-1.59-.8-3.09-1.64-4.47-2.52-1.39-.88-2.5-1.99-3.33-3.33-.83-1.33-1.25-3.06-1.25-5.17,0-1.94.47-3.55,1.4-4.84.94-1.28,2.27-2.25,4-2.91,1.73-.66,3.78-.99,6.14-.99,1.32,0,2.4.1,3.25.31.85.21,1.55.42,2.11.62s1.04.31,1.46.31c.31,0,.62-.08.94-.23s.52-.49.62-1.01h1.98l.31,10.92h-2.44c-.76-3.15-1.78-5.36-3.04-6.6-1.27-1.25-2.87-1.87-4.81-1.87-1.84,0-3.22.33-4.16.99-.94.66-1.4,1.68-1.4,3.07,0,1.28.36,2.33,1.09,3.15.73.81,1.7,1.53,2.91,2.16s2.51,1.27,3.9,1.92c1.25.56,2.45,1.17,3.61,1.85,1.16.68,2.21,1.47,3.15,2.37.94.9,1.68,1.97,2.24,3.2.55,1.23.83,2.66.83,4.29,0,2.15-.55,3.96-1.64,5.43-1.09,1.47-2.62,2.59-4.58,3.35s-4.24,1.14-6.84,1.14c-1.66,0-2.95-.13-3.85-.39-.9-.26-1.59-.52-2.05-.78-.47-.26-.89-.39-1.27-.39s-.7.15-.96.44c-.26.29-.39.68-.39,1.17Z"/>
    <path class="cls-20" d="M317.68,79.72c-1.28,0-2.28-.36-2.99-1.09-.71-.73-1.07-1.68-1.07-2.86s.36-2.12,1.07-2.83,1.72-1.07,3.04-1.07,2.31.36,2.99,1.07c.68.71,1.01,1.66,1.01,2.83s-.35,2.13-1.04,2.86c-.69.73-1.7,1.09-3.02,1.09Z"/>
    <path class="cls-20" d="M358.25,79.2h-15.18v-2.24c1.42,0,2.48-.11,3.17-.34.69-.23,1.14-.68,1.35-1.38.21-.69.31-1.75.31-3.17v-20.39c0-1.28-.15-2.23-.44-2.83-.29-.61-.8-1-1.51-1.17-.71-.17-1.67-.26-2.89-.26v-2.39h14.98c2.6,0,5.13.23,7.59.68,2.46.45,4.68,1.27,6.66,2.44,1.98,1.18,3.54,2.84,4.71,4.99,1.16,2.15,1.74,4.94,1.74,8.37s-.53,6.23-1.59,8.5c-1.06,2.27-2.53,4.08-4.42,5.43s-4.07,2.31-6.55,2.89c-2.48.57-5.12.86-7.93.86ZM357.99,76.24c2.6,0,4.84-.38,6.71-1.14,1.87-.76,3.31-2.16,4.32-4.19,1-2.03,1.51-4.97,1.51-8.81,0-4.54-1.05-8.03-3.15-10.45-2.1-2.43-5.35-3.64-9.75-3.64h-.91c-.29,0-.67.02-1.12.05v28.13c.42.03.83.05,1.25.05h1.14Z"/>
    <path class="cls-20" d="M414.77,79.2h-29.8v-2.24c1.18,0,2.12-.09,2.83-.29.71-.19,1.22-.59,1.53-1.2.31-.61.47-1.55.47-2.83v-20.65c0-1.32-.1-2.31-.31-2.96-.21-.66-.66-1.11-1.35-1.35-.69-.24-1.75-.36-3.17-.36v-2.29h29.23l.31,9.41h-2.65c-.24-1.56-.58-2.79-1.01-3.69-.43-.9-1.14-1.53-2.11-1.9-.97-.36-2.43-.55-4.37-.55h-6.86v11.96h4.63c1.73,0,3-.09,3.8-.26.8-.17,1.31-.57,1.53-1.2s.34-1.61.34-2.96h2.44v12.01h-2.44c0-1.46-.11-2.52-.34-3.2-.23-.68-.74-1.11-1.53-1.3-.8-.19-2.06-.29-3.8-.29h-4.63v12.95h6.14c1.7,0,3.1-.1,4.21-.31,1.11-.21,2-.57,2.68-1.09s1.24-1.24,1.69-2.16c.45-.92.88-2.09,1.3-3.51h2.5l-1.25,10.24Z"/>
    <path class="cls-20" d="M439.79,79.2h-18.41v-2.24c1.49,0,2.57-.11,3.25-.34.68-.23,1.11-.7,1.3-1.43s.29-1.8.29-3.22v-20.59c0-1.7-.35-2.81-1.04-3.33s-1.96-.78-3.8-.78v-2.24h16.8c1.77,0,3.48.12,5.12.36,1.65.24,3.11.69,4.39,1.35,1.28.66,2.3,1.59,3.04,2.78.75,1.2,1.12,2.75,1.12,4.65,0,2.08-.38,3.82-1.14,5.23-.76,1.4-1.79,2.52-3.09,3.35-1.3.83-2.79,1.42-4.47,1.77-1.68.35-3.44.52-5.28.52-.62,0-1.28-.07-1.98-.21-.69-.14-1.33-.28-1.92-.42v7.7c0,1.39.11,2.43.34,3.12.22.69.75,1.15,1.59,1.38.83.23,2.13.34,3.9.34v2.24ZM436.72,62.04c1.59,0,2.92-.19,3.98-.57,1.06-.38,1.85-1.12,2.37-2.21.52-1.09.78-2.66.78-4.71,0-2.39-.56-4.15-1.66-5.28-1.11-1.13-3-1.69-5.67-1.69-.45,0-.86,0-1.22.03-.36.02-.81.06-1.33.13v14.04c.38.04.75.09,1.09.16.35.07.9.1,1.66.1Z"/>
    <path class="cls-20" d="M462.88,79.2h-11.86v-2.24c.9,0,1.64-.14,2.21-.42.57-.28,1.09-.78,1.56-1.51.47-.73.96-1.77,1.48-3.12l11.29-27.15h5.46l11.23,27.25c.69,1.66,1.43,2.9,2.21,3.72.78.82,1.76,1.22,2.94,1.22v2.24h-16.69v-2.24c.45,0,.91-.03,1.38-.08.47-.05.87-.2,1.2-.44.33-.24.49-.62.49-1.14,0-.38-.1-.95-.31-1.72-.21-.76-.45-1.51-.73-2.24l-1.46-3.8-.42-1.35-4.89-13.62h-.21l-5.51,13.62-.42,1.35-1.77,4.47c-.14.45-.29.95-.47,1.51-.17.56-.26,1.06-.26,1.51,0,.83.27,1.36.81,1.59.54.23,1.45.34,2.73.34v2.24ZM474.27,68.23h-13.42l.94-2.7h11.54l.94,2.7Z"/>
    <path class="cls-20" d="M511.5,79.2h-17.73v-2.24c1.32,0,2.32-.1,3.02-.31s1.17-.66,1.43-1.35c.26-.69.39-1.75.39-3.17v-20.8c0-1.04-.11-1.85-.34-2.44-.23-.59-.68-1-1.38-1.25-.69-.24-1.73-.36-3.12-.36v-2.24h16.95c2.43,0,4.67.27,6.73.81,2.06.54,3.73,1.44,4.99,2.7,1.27,1.27,1.9,3.01,1.9,5.23,0,1.91-.38,3.45-1.14,4.63-.76,1.18-1.77,2.1-3.02,2.76-1.25.66-2.6,1.16-4.06,1.51v.26c.55.35,1.14.91,1.77,1.69.62.78,1.47,1.93,2.55,3.46,1.07,1.53,2.55,3.61,4.42,6.24.8,1.14,1.62,1.87,2.47,2.18s1.86.47,3.04.47v2.24h-11.8c-1.18-2.08-2.15-3.8-2.91-5.15-.76-1.35-1.41-2.47-1.95-3.35-.54-.88-1.02-1.69-1.46-2.42-.43-.73-.91-1.51-1.43-2.34-.45-.8-.91-1.3-1.38-1.51-.47-.21-1.15-.31-2.05-.31h-1.04v8.06c0,1.39.12,2.43.36,3.12.24.69.73,1.14,1.46,1.35.73.21,1.84.31,3.33.31v2.24ZM506.35,61.57l1.98.05c1.73-.1,3.19-.38,4.37-.83,1.18-.45,2.07-1.2,2.68-2.26.61-1.06.91-2.52.91-4.39,0-1.98-.53-3.56-1.59-4.76-1.06-1.2-2.8-1.79-5.23-1.79-.55,0-1.09,0-1.61.03-.52.02-1.02.06-1.51.13v13.83Z"/>
    <path class="cls-20" d="M556.38,79.2h-17.84v-2.24c1.52,0,2.64-.11,3.35-.34.71-.23,1.18-.72,1.4-1.48.23-.76.34-1.92.34-3.48v-23.71h-2.34c-1.91,0-3.34.23-4.29.68-.95.45-1.64,1.21-2.05,2.29-.42,1.07-.81,2.55-1.2,4.42h-2.6l.57-10.3h31.67l.47,10.3h-2.6c-.38-1.87-.79-3.35-1.22-4.42-.43-1.07-1.12-1.84-2.05-2.29-.94-.45-2.38-.68-4.32-.68h-2.29v23.71c0,1.56.11,2.72.34,3.48.22.76.69,1.26,1.4,1.48.71.23,1.79.34,3.25.34v2.24Z"/>
    <path class="cls-20" d="M581.29,79.2h-13.21v-2.24c1.39,0,2.42-.1,3.09-.31s1.13-.71,1.35-1.51c.22-.8.34-2.08.34-3.85v-19.19c0-1.32-.11-2.32-.34-3.02-.23-.69-.68-1.17-1.35-1.43-.68-.26-1.67-.39-2.99-.39v-2.24h14.61l9.78,24.08h.42l9.72-24.08h13.62v2.24c-1.18,0-2.1.13-2.76.39-.66.26-1.11.74-1.35,1.43-.24.69-.36,1.68-.36,2.96v20.7c0,1.14.13,2.02.39,2.63.26.61.72,1.02,1.38,1.25.66.23,1.58.34,2.76.34v2.24h-16.8v-2.24c1.32,0,2.31-.11,2.96-.34.66-.23,1.09-.64,1.3-1.25.21-.61.31-1.48.31-2.63v-20.7h-.31l-11.29,27.15h-4.11l-11.44-27.15h-.31v19.24c0,1.77.11,3.05.34,3.85.22.8.67,1.3,1.33,1.51s1.63.31,2.91.31v2.24Z"/>
    <path class="cls-20" d="M652.22,79.2h-29.8v-2.24c1.18,0,2.12-.09,2.83-.29.71-.19,1.22-.59,1.53-1.2.31-.61.47-1.55.47-2.83v-20.65c0-1.32-.1-2.31-.31-2.96-.21-.66-.66-1.11-1.35-1.35-.69-.24-1.75-.36-3.17-.36v-2.29h29.23l.31,9.41h-2.65c-.24-1.56-.58-2.79-1.01-3.69-.43-.9-1.14-1.53-2.11-1.9-.97-.36-2.43-.55-4.37-.55h-6.86v11.96h4.63c1.73,0,3-.09,3.8-.26.8-.17,1.31-.57,1.53-1.2s.34-1.61.34-2.96h2.44v12.01h-2.44c0-1.46-.11-2.52-.34-3.2-.23-.68-.74-1.11-1.53-1.3-.8-.19-2.06-.29-3.8-.29h-4.63v12.95h6.14c1.7,0,3.1-.1,4.21-.31,1.11-.21,2-.57,2.68-1.09s1.24-1.24,1.69-2.16c.45-.92.88-2.09,1.3-3.51h2.5l-1.25,10.24Z"/>
    <path class="cls-20" d="M692.73,79.56h-5.98l-19.92-26.83h-1.87l-1.56-2.55c-.59-.87-1.14-1.5-1.64-1.9-.5-.4-1.03-.67-1.59-.81-.55-.14-1.2-.21-1.92-.21v-2.24h12.48l18.25,24.49h.26v-15.55c0-1.35-.08-2.53-.23-3.54-.16-1-.57-1.79-1.25-2.34-.68-.55-1.83-.83-3.46-.83v-2.24h13.11v2.24c-1.49,0-2.57.28-3.22.83-.66.55-1.07,1.33-1.22,2.34-.16,1.01-.23,2.18-.23,3.54v25.59ZM671.31,79.2h-13.05v-2.24c1.39,0,2.43-.47,3.12-1.4s1.16-2.16,1.4-3.67c.24-1.51.36-3.13.36-4.86v-18.05h3.43v21.79c0,1.73.12,3.04.36,3.93.24.88.71,1.48,1.4,1.79.69.31,1.68.47,2.96.47v2.24Z"/>
    <path class="cls-20" d="M726.43,79.2h-17.84v-2.24c1.52,0,2.64-.11,3.35-.34.71-.23,1.18-.72,1.4-1.48.23-.76.34-1.92.34-3.48v-23.71h-2.34c-1.91,0-3.34.23-4.29.68-.95.45-1.64,1.21-2.05,2.29-.42,1.07-.81,2.55-1.2,4.42h-2.6l.57-10.3h31.67l.47,10.3h-2.6c-.38-1.87-.79-3.35-1.22-4.42-.43-1.07-1.12-1.84-2.05-2.29-.94-.45-2.38-.68-4.32-.68h-2.29v23.71c0,1.56.11,2.72.34,3.48.22.76.69,1.26,1.4,1.48.71.23,1.79.34,3.25.34v2.24Z"/>
    <path class="cls-20" d="M239.34,169.33c-2.83,0-5.23-.62-7.21-1.85-1.98-1.23-3.47-2.94-4.47-5.13-1-2.18-1.5-4.74-1.5-7.67,0-3.08.47-6.01,1.43-8.79.95-2.78,2.27-5.23,3.97-7.36,1.7-2.13,3.7-3.82,6.01-5.05s4.83-1.85,7.56-1.85c3.08,0,5.6.69,7.56,2.08,1.95,1.39,3.39,3.21,4.32,5.47.92,2.26,1.39,4.76,1.39,7.48,0,3.08-.49,5.99-1.46,8.71-.98,2.72-2.33,5.13-4.05,7.21s-3.74,3.73-6.05,4.94-4.81,1.81-7.48,1.81ZM240.11,166.63c1.85,0,3.48-.66,4.9-1.97,1.41-1.31,2.59-3.01,3.55-5.09.95-2.08,1.67-4.34,2.16-6.79.49-2.44.73-4.82.73-7.13,0-2.11-.19-4.02-.58-5.75-.39-1.72-1.07-3.1-2.04-4.12-.98-1.03-2.39-1.54-4.24-1.54-2,0-3.74.66-5.21,1.97-1.46,1.31-2.67,3.02-3.62,5.13-.95,2.11-1.66,4.41-2.12,6.9-.46,2.49-.69,4.92-.69,7.29,0,1.9.19,3.7.58,5.4.39,1.7,1.1,3.07,2.16,4.12,1.05,1.05,2.53,1.58,4.43,1.58Z"/>
    <path class="cls-20" d="M260.08,185.91c-2.47,0-4.23-.59-5.28-1.77-1.05-1.18-1.58-2.44-1.58-3.78,0-1.08.27-1.98.81-2.7.54-.72,1.3-1.08,2.27-1.08,1.18,0,1.98.35,2.39,1.04.41.69.67,1.49.77,2.39.1.9.26,1.7.46,2.39.21.69.67,1.04,1.39,1.04.82,0,1.55-.44,2.2-1.31.64-.88,1.22-2.02,1.73-3.43.51-1.41.96-2.93,1.35-4.55.39-1.62.72-3.17,1-4.67.28-1.49.5-2.75.66-3.78l5.32-31.92c.41-2.52.9-4.87,1.46-7.06.57-2.18,1.34-4.12,2.31-5.82.67-1.23,1.5-2.39,2.51-3.47,1-1.08,2.25-1.97,3.74-2.66,1.49-.69,3.34-1.04,5.55-1.04,1.59,0,2.93.25,4.01.73,1.08.49,1.9,1.14,2.47,1.97.56.82.85,1.8.85,2.93s-.31,1.98-.92,2.54c-.62.57-1.34.85-2.16.85-1.03,0-1.77-.3-2.24-.89-.46-.59-.75-1.3-.85-2.12-.15-.98-.35-1.85-.58-2.62-.23-.77-.81-1.16-1.73-1.16-1.95,0-3.5,1.03-4.63,3.08-1.13,2.06-1.98,4.73-2.54,8.02l-5.71,34.93c-.21,1.34-.53,3.01-.96,5.01-.44,2-1.03,4.1-1.77,6.28-.75,2.18-1.67,4.23-2.78,6.13-1.11,1.9-2.44,3.46-4.01,4.67-1.57,1.21-3.41,1.81-5.51,1.81ZM286.76,135.71h-19.97l.31-3.16h20.12l-.46,3.16Z"/>
    <path class="cls-20" d="M368.99,168.56h-53.43v-4.01c2.11,0,3.81-.17,5.08-.51,1.27-.34,2.19-1.06,2.75-2.15.56-1.09.84-2.78.84-5.08v-37.02c0-2.36-.19-4.13-.56-5.31-.37-1.18-1.18-1.99-2.42-2.42-1.24-.43-3.14-.65-5.69-.65v-4.1h52.41l.56,16.88h-4.75c-.44-2.8-1.04-5-1.82-6.62-.78-1.62-2.04-2.75-3.78-3.4-1.74-.65-4.35-.98-7.83-.98h-12.31v21.45h8.3c3.11,0,5.38-.15,6.81-.47,1.43-.31,2.35-1.03,2.75-2.14.4-1.12.61-2.89.61-5.32h4.38v21.54h-4.38c0-2.61-.2-4.52-.61-5.74-.41-1.21-1.32-1.99-2.75-2.33-1.43-.34-3.7-.51-6.81-.51h-8.3v23.22h11c3.04,0,5.56-.19,7.55-.56,1.99-.37,3.59-1.03,4.8-1.96,1.21-.93,2.22-2.22,3.03-3.87.81-1.65,1.58-3.74,2.33-6.29h4.48l-2.24,18.37Z"/>
    <path class="cls-20" d="M442.56,169.21h-10.72l-35.71-48.12h-3.36l-2.8-4.57c-1.06-1.55-2.04-2.69-2.94-3.4-.9-.71-1.85-1.2-2.84-1.45-1-.25-2.15-.37-3.45-.37v-4.01h22.38l32.73,43.92h.47v-27.88c0-2.42-.14-4.54-.42-6.34-.28-1.8-1.03-3.2-2.24-4.2-1.21-.99-3.28-1.49-6.2-1.49v-4.01h23.5v4.01c-2.67,0-4.6.5-5.78,1.49-1.18,1-1.91,2.39-2.19,4.2-.28,1.8-.42,3.92-.42,6.34v45.88ZM404.14,168.56h-23.41v-4.01c2.49,0,4.35-.84,5.59-2.52,1.24-1.68,2.08-3.87,2.52-6.57.43-2.7.65-5.61.65-8.72v-32.36h6.16v39.07c0,3.11.22,5.46.65,7.04.43,1.58,1.27,2.66,2.52,3.22,1.24.56,3.01.84,5.32.84v4.01Z"/>
    <path class="cls-20" d="M513.99,168.56h-53.43v-4.01c2.11,0,3.81-.17,5.08-.51,1.27-.34,2.19-1.06,2.75-2.15.56-1.09.84-2.78.84-5.08v-37.02c0-2.36-.19-4.13-.56-5.31-.37-1.18-1.18-1.99-2.42-2.42-1.24-.43-3.14-.65-5.69-.65v-4.1h52.41l.56,16.88h-4.75c-.44-2.8-1.04-5-1.82-6.62-.78-1.62-2.04-2.75-3.78-3.4-1.74-.65-4.35-.98-7.83-.98h-12.31v21.45h8.3c3.11,0,5.38-.15,6.81-.47,1.43-.31,2.35-1.03,2.75-2.14.4-1.12.61-2.89.61-5.32h4.38v21.54h-4.38c0-2.61-.2-4.52-.61-5.74-.41-1.21-1.32-1.99-2.75-2.33-1.43-.34-3.7-.51-6.81-.51h-8.3v23.22h11c3.04,0,5.56-.19,7.55-.56,1.99-.37,3.59-1.03,4.8-1.96,1.21-.93,2.22-2.22,3.03-3.87.81-1.65,1.58-3.74,2.33-6.29h4.48l-2.24,18.37Z"/>
    <path class="cls-20" d="M558.56,168.56h-31.8v-4.01c2.36,0,4.16-.19,5.41-.56,1.24-.37,2.1-1.18,2.56-2.42.47-1.24.7-3.14.7-5.69v-37.3c0-1.87-.2-3.33-.61-4.38-.41-1.06-1.23-1.8-2.47-2.24-1.24-.43-3.11-.65-5.59-.65v-4.01h30.4c4.35,0,8.38.48,12.08,1.45,3.7.96,6.68,2.58,8.95,4.85,2.27,2.27,3.4,5.39,3.4,9.37,0,3.42-.68,6.19-2.05,8.3-1.37,2.11-3.17,3.76-5.41,4.94-2.24,1.18-4.66,2.08-7.27,2.7v.47c.99.62,2.05,1.63,3.17,3.03s2.64,3.47,4.57,6.2c1.93,2.74,4.57,6.47,7.93,11.19,1.43,2.05,2.91,3.36,4.43,3.92,1.52.56,3.34.84,5.45.84v4.01h-21.17c-2.11-3.73-3.86-6.81-5.22-9.23-1.37-2.42-2.53-4.43-3.5-6.01-.96-1.59-1.83-3.03-2.61-4.34-.78-1.31-1.63-2.71-2.56-4.2-.81-1.43-1.63-2.33-2.47-2.7-.84-.37-2.07-.56-3.68-.56h-1.86v14.45c0,2.49.22,4.35.65,5.59.43,1.24,1.31,2.05,2.61,2.42s3.29.56,5.97.56v4.01ZM549.33,136.95l3.54.09c3.11-.19,5.72-.68,7.83-1.49,2.11-.81,3.71-2.16,4.8-4.06,1.09-1.9,1.63-4.52,1.63-7.88,0-3.54-.95-6.39-2.84-8.53-1.9-2.14-5.02-3.22-9.37-3.22-1,0-1.96.02-2.89.05-.93.03-1.83.11-2.7.23v24.8Z"/>
    <path class="cls-20" d="M629.62,169.58c-10.57,0-18.4-2.75-23.5-8.25-5.1-5.5-7.65-13.26-7.65-23.27,0-7.33,1.37-13.35,4.1-18.04,2.74-4.69,6.46-8.17,11.19-10.44,4.72-2.27,10.07-3.4,16.04-3.4,3.29,0,5.92.28,7.88.84s3.53,1.13,4.71,1.73c1.18.59,2.18.89,2.98.89.99,0,1.69-.36,2.1-1.07.4-.71.73-1.51.98-2.38h4.1v22.47h-4.57c-1.18-6.16-3.3-10.6-6.34-13.33-3.05-2.73-7.03-4.1-11.94-4.1-5.78,0-9.99,2.13-12.64,6.39-2.64,4.26-3.96,10.52-3.96,18.79,0,9.2,1.27,16.1,3.82,20.7,2.55,4.6,6.78,6.9,12.68,6.9,2.74,0,5-.31,6.81-.93,1.8-.62,3.57-1.65,5.32-3.08v-8.11c0-2.24-.19-3.95-.56-5.13-.37-1.18-1.14-1.97-2.29-2.38-1.15-.4-2.91-.61-5.27-.61v-4.1h26.39v4.1c-2.61,0-4.29.47-5.04,1.4s-1.12,2.86-1.12,5.78v12.31c-3.42,1.93-7.03,3.47-10.82,4.62-3.79,1.15-8.27,1.72-13.43,1.72Z"/>
    <path class="cls-20" d="M715.03,168.56h-32.54v-4.01c2.74,0,4.76-.15,6.06-.47,1.31-.31,2.16-1.09,2.56-2.33.4-1.24.61-3.23.61-5.97v-10.54l-12.59-21.35c-1.74-2.98-3.2-5.32-4.38-6.99-1.18-1.68-2.24-2.92-3.17-3.73-.93-.81-1.82-1.32-2.66-1.54-.84-.22-1.82-.33-2.94-.33v-4.01h29v4.01c-2.49,0-4.07.19-4.75.56-.69.37-1.03.9-1.03,1.58,0,1,.47,2.33,1.4,4.01l7.83,14.17,3.54,7.55h.65l11.47-22.57c.25-.37.47-.85.65-1.45.19-.59.28-1.1.28-1.54,0-.68-.3-1.24-.89-1.68-.59-.43-2.07-.65-4.43-.65v-4.01h21.17v4.01c-1.74.06-3.2.28-4.38.65-1.18.37-2.29,1.1-3.31,2.19-1.03,1.09-2.22,2.81-3.59,5.18l-13.99,26.02v10.44c0,2.67.26,4.63.79,5.88.53,1.24,1.48,2.04,2.84,2.38,1.37.34,3.29.51,5.78.51v4.01Z"/>
  </g>
</svg>