<?xml version="1.0" encoding="UTF-8"?>
<svg id="Layer_1" data-name="Layer 1" xmlns="http://www.w3.org/2000/svg" version="1.1" viewBox="0 0 497.8 137.8">
  <defs>
    <style>
      .cls-1 {
        fill: #231f20;
        stroke-width: 0px;
      }
    </style>
  </defs>
  <polygon class="cls-1" points="23.5 98.5 64.4 98.5 64.4 77 23.5 77 23.5 65 67.5 65 67.5 43.4 0 43.4 0 136.3 69.1 136.3 69.1 114.9 23.5 114.9 23.5 98.5"/>
  <polygon class="cls-1" points="128.6 91.3 100.7 43.4 79.2 43.4 79.2 136.3 101.5 136.3 101.5 89.7 128.9 136.3 150.9 136.3 150.9 43.4 128.6 43.4 128.6 91.3"/>
  <polygon class="cls-1" points="187.8 98.5 228.7 98.5 228.7 77 187.8 77 187.8 65 231.8 65 231.8 43.4 164.3 43.4 164.3 136.3 233.4 136.3 233.4 114.9 187.8 114.9 187.8 98.5"/>
  <path class="cls-1" d="M303.5,99.8c-1-1.1-2.1-2.3-3.4-3.3,4.4-1.6,8-4,10.7-7.2,4.1-4.8,6.2-11,6.2-18.2s-1.4-10.9-4.1-15.3c-2.8-4.6-6.5-7.9-11.2-9.7-4.4-1.7-11-2.6-20.3-2.6h-38.2v92.9h23.5v-35.9c4.3,0,6.2.5,6.9.8,1.2.4,2.4,1.3,3.6,2.6,1,1.1,3.2,4.1,8.3,12.2l12.9,20.3h27.8l-13.1-22c-4.1-6.9-7.3-11.7-9.8-14.5ZM266.8,65h9.4c8.3,0,10.8.2,11.5.2,1.8.3,3.1,1,4.1,2.1.9,1.1,1.4,2.7,1.4,4.8s-.4,3.4-1.1,4.5c-.7,1.1-1.6,1.8-2.9,2.2-.7.3-3.5.9-13.6.9h-8.7v-14.8Z"/>
  <path class="cls-1" d="M366.5,104.8h18.9v5.7c-1.9,1.4-4.2,2.6-6.8,3.7-3,1.2-6.1,1.9-9.1,1.9-5.9,0-10.6-2.1-14.2-6.4-3.7-4.4-5.6-11.4-5.6-20.7s1.8-14.9,5.5-19.1c3.6-4.1,8.3-6,14.5-6s7.2,1,9.7,2.9c2.6,2,4.3,4.6,5.2,8.1l.9,3.1,23-4.5-.7-3.5c-1.8-8.7-5.9-15.6-12.3-20.6-6.3-4.9-15-7.5-25.9-7.5s-15.5,1.6-21.2,4.7c-7.5,4-13.2,9.9-17.1,17.5-3.8,7.4-5.7,16-5.7,25.4s1.7,16.9,5.1,24.3c3.5,7.6,8.8,13.6,15.7,17.7,6.9,4.1,15,6.1,24.1,6.1s14.3-1.4,21.2-4.3c7-2.8,12.4-6.2,16.2-10.1l1-1v-39.1h-42.5v21.5Z"/>
  <polygon class="cls-1" points="470.5 43.4 453.7 73.8 436.6 43.4 409.1 43.4 441.7 97.7 441.7 136.3 465.1 136.3 465.1 97.8 497.8 43.4 470.5 43.4"/>
  <path class="cls-1" d="M2.1,22.9c.8.9,1.8,1.6,3.1,2.2,1.3.6,3.3.8,5.8.8s3.8-.3,5.2-.8c1.3-.5,2.4-1.2,3.2-2,.8-.9,1.3-1.9,1.6-3.1.3-1.2.4-3.4.4-6.4V.4h-5.4v13.9c0,2,0,3.4-.2,4.3-.2.9-.6,1.6-1.4,2.2-.8.6-1.9.9-3.5.9s-2.7-.3-3.6-.9c-.9-.6-1.4-1.4-1.7-2.5-.1-.6-.2-2-.2-4.2V.4H0v13.4c0,2.8.2,4.9.5,6.4.2,1,.8,1.9,1.5,2.8Z"/>
  <rect class="cls-1" x="29.8" y="20.7" width="5.1" height="4.8"/>
  <path class="cls-1" d="M56.6,20.6c-.9.7-2.2,1-3.9,1s-3-.4-3.9-1.2c-1-.8-1.6-2-1.9-3.6l-5.3.5c.4,2.8,1.4,4.9,3.3,6.4,1.8,1.5,4.4,2.2,7.8,2.2s4.3-.3,5.8-.9c1.6-.6,2.8-1.5,3.6-2.8.9-1.3,1.3-2.6,1.3-4s-.4-2.9-1.1-4c-.7-1.1-1.7-1.9-3-2.5-1.3-.6-3.2-1.2-5.8-1.8-2.6-.6-4.3-1.1-5-1.7-.5-.4-.8-.9-.8-1.5s.3-1.2.9-1.6c.9-.6,2.1-.9,3.7-.9s2.7.3,3.4.8c.8.6,1.3,1.5,1.5,2.8l5.4-.2c0-2.3-1-4.1-2.7-5.5-1.7-1.4-4.2-2.1-7.6-2.1s-3.8.3-5.3.9c-1.5.6-2.6,1.4-3.3,2.5-.8,1.1-1.2,2.3-1.2,3.6,0,2,.8,3.7,2.5,5,1.2,1,3.2,1.8,6.1,2.5,2.3.5,3.7.9,4.3,1.1.9.3,1.6.7,1.9,1.1.4.4.6.9.6,1.5,0,.9-.4,1.7-1.3,2.4Z"/>
  <rect class="cls-1" x="70.5" y="20.7" width="5.1" height="4.8"/>
  <path class="cls-1" d="M111.6,25c1.6-.5,2.9-1.1,3.8-2,1.2-1.1,2.2-2.6,2.9-4.4.5-1.5.8-3.3.8-5.3s-.3-4.3-.9-5.9c-.6-1.6-1.4-3-2.6-4.1-1.1-1.1-2.5-1.9-4-2.3-1.2-.3-2.9-.5-5.1-.5h-9.9v25.1h10.2c2,0,3.6-.2,4.8-.5ZM102,21.3V4.7h2.4c2.2,0,3.7,0,4.4.2,1,.2,1.8.6,2.5,1.2s1.2,1.4,1.5,2.4c.4,1,.5,2.5.5,4.5s-.2,3.5-.5,4.6c-.4,1.1-.8,1.9-1.4,2.4-.6.5-1.3.8-2.2,1-.7.2-1.8.2-3.3.2h-4Z"/>
  <polygon class="cls-1" points="146.7 21.3 131.8 21.3 131.8 14.4 145.2 14.4 145.2 10.2 131.8 10.2 131.8 4.7 146.2 4.7 146.2 .4 126.4 .4 126.4 25.5 146.7 25.5 146.7 21.3"/>
  <path class="cls-1" d="M171.3,14.5c.9-.6,1.7-1.4,2.3-2.5.6-1,.9-2.3.9-3.9s-.5-3.6-1.6-4.9c-1-1.3-2.3-2.1-3.9-2.5-1-.3-3.1-.4-6.4-.4h-8.7v25.1h5.4v-9.5h3.5c2.5,0,4.3-.1,5.6-.4,1-.2,1.9-.6,2.8-1.2ZM166.6,11.4c-.7.3-2.1.4-4.3.4h-3v-7.1h2.6c2,0,3.2,0,3.9.2.9.1,1.6.5,2.2,1.1.6.6.9,1.3.9,2.3s-.2,1.4-.6,1.9c-.4.6-1,1-1.7,1.2Z"/>
  <path class="cls-1" d="M184.1,19.8h10.7l2.3,5.7h5.9L192.3.4h-5.7l-10.4,25.1h5.7l2.2-5.7ZM189.4,6.3l3.7,9.3h-7.3l3.6-9.3Z"/>
  <path class="cls-1" d="M214,15h1.1c1.2,0,2.2,0,2.7.3.6.2,1.1.5,1.6,1,.5.5,1.5,1.7,2.9,3.7l3.9,5.5h6.5l-3.3-4.9c-1.3-1.9-2.3-3.3-3.1-4.1-.8-.8-1.7-1.5-2.9-2.1,2.4-.3,4.1-1.1,5.3-2.3,1.2-1.2,1.8-2.8,1.8-4.7s-.4-2.8-1.2-3.9c-.8-1.2-1.8-2-3.1-2.4-1.3-.4-3.4-.7-6.2-.7h-11.4v25.1h5.4v-10.5ZM214,4.7h4.2c2.2,0,3.5,0,3.9,0,.9.1,1.6.5,2,1,.5.5.7,1.2.7,2s-.2,1.4-.5,1.9c-.4.5-.9.9-1.5,1.1-.6.2-2.3.3-4.9.3h-4v-6.4Z"/>
  <polygon class="cls-1" points="244.3 25.5 249.7 25.5 249.7 4.7 257.6 4.7 257.6 .4 236.3 .4 236.3 4.7 244.3 4.7 244.3 25.5"/>
  <polygon class="cls-1" points="268.7 5.8 274 25.5 279.3 25.5 284.6 5.8 284.6 25.5 289.6 25.5 289.6 .4 281.5 .4 276.7 17.5 271.8 .4 263.7 .4 263.7 25.5 268.7 25.5 268.7 5.8"/>
  <polygon class="cls-1" points="318 21.3 303.1 21.3 303.1 14.4 316.5 14.4 316.5 10.2 303.1 10.2 303.1 4.7 317.5 4.7 317.5 .4 297.6 .4 297.6 25.5 318 25.5 318 21.3"/>
  <polygon class="cls-1" points="330.4 9.1 341.2 25.5 346.6 25.5 346.6 .4 341.6 .4 341.6 17.2 330.6 .4 325.3 .4 325.3 25.5 330.4 25.5 330.4 9.1"/>
  <polygon class="cls-1" points="361 25.5 366.4 25.5 366.4 4.7 374.4 4.7 374.4 .4 353.1 .4 353.1 4.7 361 4.7 361 25.5"/>
  <path class="cls-1" d="M405.5,25.9c3.9,0,7.1-1.1,9.4-3.4,2.4-2.3,3.5-5.4,3.5-9.5s-1.2-7.3-3.6-9.6c-2.4-2.3-5.5-3.4-9.5-3.4s-4.1.3-5.8,1c-1.3.5-2.4,1.2-3.5,2.3-1.1,1-1.9,2.2-2.5,3.4-.8,1.7-1.2,3.9-1.2,6.4,0,4,1.2,7.1,3.5,9.4,2.4,2.3,5.5,3.4,9.5,3.4ZM400.1,6.5c1.4-1.4,3.2-2.1,5.4-2.1s4,.7,5.4,2.1c1.3,1.4,2,3.6,2,6.4s-.7,5.1-2.1,6.5c-1.4,1.5-3.2,2.2-5.3,2.2s-3.9-.7-5.3-2.2c-1.4-1.5-2.1-3.6-2.1-6.5s.7-5,2-6.5Z"/>
  <polygon class="cls-1" points="430.8 14.8 442 14.8 442 10.6 430.8 10.6 430.8 4.7 443.8 4.7 443.8 .4 425.4 .4 425.4 25.5 430.8 25.5 430.8 14.8"/>
</svg>