<?xml version="1.0" encoding="utf-8"?>
<!-- Generator: Adobe Illustrator 29.6.1, SVG Export Plug-In . SVG Version: 9.03 Build 0)  -->
<svg version="1.1" xmlns="http://www.w3.org/2000/svg" xmlns:xlink="http://www.w3.org/1999/xlink" x="0px" y="0px"
	 viewBox="0 0 166 90.1" style="enable-background:new 0 0 166 90.1;" xml:space="preserve">
<style type="text/css">
	.st0{fill:#037DBC;}
	.st1{fill:#FFFFFF;}
</style>
<g id="Background">
	<rect y="0" class="st0" width="166" height="90.2"/>
	<g>
		<path class="st1" d="M19.4,23.8h2l6.1,9h0v-9H29v11h-1.9l-6.1-9h0v9h-1.5V23.8z"/>
		<path class="st1" d="M35.4,23.8h1.4l4.7,11h-1.7L38.6,32h-5.2l-1.1,2.7h-1.7L35.4,23.8z M38,30.7l-2.1-5h0l-2.1,5H38z"/>
		<path class="st1" d="M43.8,25.2h-3.5v-1.4h8.6v1.4h-3.5v9.6h-1.5V25.2z"/>
		<path class="st1" d="M50.8,23.8h1.5v11h-1.5V23.8z"/>
		<path class="st1" d="M60.1,35c-0.8,0-1.6-0.1-2.3-0.4c-0.7-0.3-1.3-0.7-1.8-1.2c-0.5-0.5-0.9-1.1-1.2-1.8
			c-0.3-0.7-0.4-1.5-0.4-2.3c0-0.8,0.1-1.6,0.4-2.3c0.3-0.7,0.7-1.3,1.2-1.8c0.5-0.5,1.1-0.9,1.8-1.2c0.7-0.3,1.5-0.4,2.3-0.4
			c0.8,0,1.6,0.1,2.3,0.4c0.7,0.3,1.3,0.7,1.8,1.2c0.5,0.5,0.9,1.1,1.2,1.8c0.3,0.7,0.4,1.5,0.4,2.3c0,0.8-0.1,1.6-0.4,2.3
			c-0.3,0.7-0.7,1.3-1.2,1.8c-0.5,0.5-1.1,0.9-1.8,1.2C61.7,34.9,60.9,35,60.1,35z M60.1,33.6c0.6,0,1.2-0.1,1.7-0.3
			c0.5-0.2,0.9-0.5,1.3-0.9c0.4-0.4,0.6-0.9,0.8-1.4c0.2-0.5,0.3-1.1,0.3-1.7c0-0.6-0.1-1.2-0.3-1.7c-0.2-0.5-0.5-1-0.8-1.4
			c-0.4-0.4-0.8-0.7-1.3-0.9c-0.5-0.2-1.1-0.3-1.7-0.3c-0.6,0-1.2,0.1-1.7,0.3c-0.5,0.2-0.9,0.5-1.3,0.9c-0.4,0.4-0.6,0.9-0.8,1.4
			c-0.2,0.5-0.3,1.1-0.3,1.7c0,0.6,0.1,1.2,0.3,1.7c0.2,0.5,0.5,1,0.8,1.4c0.4,0.4,0.8,0.7,1.3,0.9C58.9,33.5,59.4,33.6,60.1,33.6z"
			/>
		<path class="st1" d="M67.8,23.8h2l6.1,9h0v-9h1.5v11h-1.9l-6.1-9h0v9h-1.5V23.8z"/>
		<path class="st1" d="M83.8,23.8h1.4l4.7,11h-1.7L87,32h-5.2l-1.1,2.7h-1.7L83.8,23.8z M86.4,30.7l-2.1-5h0l-2.1,5H86.4z"/>
		<path class="st1" d="M91.4,23.8h1.5v9.6h5v1.4h-6.5V23.8z"/>
		<path class="st1" d="M19.4,41.4h1.5V51h5v1.4h-6.5V41.4z"/>
		<path class="st1" d="M32.3,41.4h1.4l4.7,11h-1.7l-1.1-2.7h-5.2l-1.1,2.7h-1.7L32.3,41.4z M35,48.3l-2.1-5h0l-2.1,5H35z"/>
		<path class="st1" d="M39.9,41.4h3.8c0.5,0,0.9,0.1,1.3,0.2c0.4,0.1,0.8,0.3,1.1,0.5c0.3,0.2,0.5,0.5,0.7,0.9
			c0.2,0.3,0.3,0.8,0.3,1.2c0,0.6-0.2,1.1-0.5,1.5c-0.4,0.4-0.8,0.7-1.4,0.9v0c0.3,0,0.6,0.1,0.9,0.3c0.3,0.2,0.5,0.3,0.8,0.6
			c0.2,0.2,0.4,0.5,0.5,0.8c0.1,0.3,0.2,0.7,0.2,1c0,0.5-0.1,0.9-0.3,1.3c-0.2,0.4-0.5,0.7-0.8,1c-0.4,0.3-0.8,0.5-1.2,0.6
			c-0.5,0.1-1,0.2-1.5,0.2h-3.8V41.4z M41.4,45.9h2c0.3,0,0.5,0,0.8-0.1c0.2-0.1,0.5-0.2,0.7-0.3c0.2-0.1,0.3-0.3,0.4-0.5
			c0.1-0.2,0.2-0.5,0.2-0.8c0-0.4-0.1-0.8-0.4-1.1c-0.3-0.3-0.7-0.5-1.3-0.5h-2.3V45.9z M41.4,51.1h2.2c0.2,0,0.5,0,0.8-0.1
			c0.3,0,0.5-0.1,0.8-0.3c0.2-0.1,0.4-0.3,0.6-0.6c0.2-0.2,0.2-0.6,0.2-0.9c0-0.7-0.2-1.1-0.6-1.5c-0.4-0.3-1-0.5-1.7-0.5h-2.2V51.1
			z"/>
		<path class="st1" d="M54.9,52.7c-0.8,0-1.6-0.1-2.3-0.4c-0.7-0.3-1.3-0.7-1.8-1.2c-0.5-0.5-0.9-1.1-1.2-1.8
			c-0.3-0.7-0.4-1.5-0.4-2.3c0-0.8,0.1-1.6,0.4-2.3c0.3-0.7,0.7-1.3,1.2-1.8c0.5-0.5,1.1-0.9,1.8-1.2c0.7-0.3,1.5-0.4,2.3-0.4
			c0.8,0,1.6,0.1,2.3,0.4c0.7,0.3,1.3,0.7,1.8,1.2c0.5,0.5,0.9,1.1,1.2,1.8c0.3,0.7,0.4,1.5,0.4,2.3c0,0.8-0.1,1.6-0.4,2.3
			c-0.3,0.7-0.7,1.3-1.2,1.8c-0.5,0.5-1.1,0.9-1.8,1.2C56.5,52.5,55.7,52.7,54.9,52.7z M54.9,51.3c0.6,0,1.2-0.1,1.7-0.3
			c0.5-0.2,0.9-0.5,1.3-0.9c0.4-0.4,0.6-0.9,0.8-1.4c0.2-0.5,0.3-1.1,0.3-1.7c0-0.6-0.1-1.2-0.3-1.7c-0.2-0.5-0.5-1-0.8-1.4
			c-0.4-0.4-0.8-0.7-1.3-0.9c-0.5-0.2-1.1-0.3-1.7-0.3c-0.6,0-1.2,0.1-1.7,0.3c-0.5,0.2-0.9,0.5-1.3,0.9c-0.4,0.4-0.6,0.9-0.8,1.4
			c-0.2,0.5-0.3,1.1-0.3,1.7c0,0.6,0.1,1.2,0.3,1.7c0.2,0.5,0.5,1,0.8,1.4c0.4,0.4,0.8,0.7,1.3,0.9C53.7,51.1,54.3,51.3,54.9,51.3z"
			/>
		<path class="st1" d="M62.6,41.4h3.9c0.7,0,1.3,0.1,1.7,0.3c0.5,0.2,0.8,0.4,1.1,0.7c0.3,0.3,0.4,0.6,0.6,1
			c0.1,0.4,0.2,0.7,0.2,1.1c0,0.4-0.1,0.7-0.2,1c-0.1,0.3-0.3,0.6-0.5,0.9c-0.2,0.3-0.5,0.5-0.9,0.7c-0.3,0.2-0.7,0.3-1.1,0.3l3.1,5
			h-1.9l-2.8-4.8h-1.7v4.8h-1.5V41.4z M64.1,46.2h2c0.3,0,0.6,0,0.9-0.1c0.3,0,0.5-0.1,0.8-0.3c0.2-0.1,0.4-0.3,0.5-0.5
			c0.1-0.2,0.2-0.5,0.2-0.9c0-0.4-0.1-0.7-0.2-0.9c-0.1-0.2-0.3-0.4-0.5-0.5c-0.2-0.1-0.5-0.2-0.8-0.3c-0.3,0-0.6-0.1-0.9-0.1h-2
			V46.2z"/>
		<path class="st1" d="M76.8,41.4h1.4l4.7,11h-1.7L80,49.7h-5.2l-1.1,2.7H72L76.8,41.4z M79.5,48.3l-2.1-5h0l-2.1,5H79.5z"/>
		<path class="st1" d="M85.3,42.8h-3.5v-1.4h8.6v1.4h-3.5v9.6h-1.5V42.8z"/>
		<path class="st1" d="M97.1,52.7c-0.8,0-1.6-0.1-2.3-0.4c-0.7-0.3-1.3-0.7-1.8-1.2c-0.5-0.5-0.9-1.1-1.2-1.8
			c-0.3-0.7-0.4-1.5-0.4-2.3c0-0.8,0.1-1.6,0.4-2.3c0.3-0.7,0.7-1.3,1.2-1.8c0.5-0.5,1.1-0.9,1.8-1.2c0.7-0.3,1.5-0.4,2.3-0.4
			c0.8,0,1.6,0.1,2.3,0.4c0.7,0.3,1.3,0.7,1.8,1.2c0.5,0.5,0.9,1.1,1.2,1.8c0.3,0.7,0.4,1.5,0.4,2.3c0,0.8-0.1,1.6-0.4,2.3
			c-0.3,0.7-0.7,1.3-1.2,1.8c-0.5,0.5-1.1,0.9-1.8,1.2C98.7,52.5,97.9,52.7,97.1,52.7z M97.1,51.3c0.6,0,1.2-0.1,1.7-0.3
			c0.5-0.2,0.9-0.5,1.3-0.9c0.4-0.4,0.6-0.9,0.8-1.4c0.2-0.5,0.3-1.1,0.3-1.7c0-0.6-0.1-1.2-0.3-1.7c-0.2-0.5-0.5-1-0.8-1.4
			c-0.4-0.4-0.8-0.7-1.3-0.9c-0.5-0.2-1.1-0.3-1.7-0.3c-0.6,0-1.2,0.1-1.7,0.3c-0.5,0.2-0.9,0.5-1.3,0.9c-0.4,0.4-0.6,0.9-0.8,1.4
			c-0.2,0.5-0.3,1.1-0.3,1.7c0,0.6,0.1,1.2,0.3,1.7c0.2,0.5,0.5,1,0.8,1.4c0.4,0.4,0.8,0.7,1.3,0.9C95.9,51.1,96.5,51.3,97.1,51.3z"
			/>
		<path class="st1" d="M104.9,41.4h3.9c0.7,0,1.3,0.1,1.7,0.3c0.5,0.2,0.8,0.4,1.1,0.7c0.3,0.3,0.4,0.6,0.6,1
			c0.1,0.4,0.2,0.7,0.2,1.1c0,0.4-0.1,0.7-0.2,1c-0.1,0.3-0.3,0.6-0.5,0.9c-0.2,0.3-0.5,0.5-0.9,0.7c-0.3,0.2-0.7,0.3-1.1,0.3l3.1,5
			h-1.9l-2.8-4.8h-1.7v4.8h-1.5V41.4z M106.3,46.2h2c0.3,0,0.6,0,0.9-0.1c0.3,0,0.5-0.1,0.8-0.3c0.2-0.1,0.4-0.3,0.5-0.5
			c0.1-0.2,0.2-0.5,0.2-0.9c0-0.4-0.1-0.7-0.2-0.9s-0.3-0.4-0.5-0.5c-0.2-0.1-0.5-0.2-0.8-0.3c-0.3,0-0.6-0.1-0.9-0.1h-2V46.2z"/>
		<path class="st1" d="M116.8,47.7l-4.2-6.3h1.9l3,4.8l3.1-4.8h1.8l-4.2,6.3v4.7h-1.5V47.7z"/>
		<path class="st1" d="M24.5,70.3c-0.8,0-1.6-0.1-2.3-0.4c-0.7-0.3-1.3-0.7-1.8-1.2c-0.5-0.5-0.9-1.1-1.2-1.8
			c-0.3-0.7-0.4-1.5-0.4-2.3c0-0.8,0.1-1.6,0.4-2.3c0.3-0.7,0.7-1.3,1.2-1.8c0.5-0.5,1.1-0.9,1.8-1.2c0.7-0.3,1.5-0.4,2.3-0.4
			s1.6,0.1,2.3,0.4c0.7,0.3,1.3,0.7,1.8,1.2c0.5,0.5,0.9,1.1,1.2,1.8c0.3,0.7,0.4,1.5,0.4,2.3c0,0.8-0.1,1.6-0.4,2.3
			c-0.3,0.7-0.7,1.3-1.2,1.8c-0.5,0.5-1.1,0.9-1.8,1.2C26.1,70.1,25.3,70.3,24.5,70.3z M24.5,68.9c0.6,0,1.2-0.1,1.7-0.3
			c0.5-0.2,0.9-0.5,1.3-0.9c0.4-0.4,0.6-0.9,0.8-1.4c0.2-0.5,0.3-1.1,0.3-1.7c0-0.6-0.1-1.2-0.3-1.7c-0.2-0.5-0.5-1-0.8-1.4
			c-0.4-0.4-0.8-0.7-1.3-0.9c-0.5-0.2-1.1-0.3-1.7-0.3c-0.6,0-1.2,0.1-1.7,0.3c-0.5,0.2-0.9,0.5-1.3,0.9c-0.4,0.4-0.6,0.9-0.8,1.4
			c-0.2,0.5-0.3,1.1-0.3,1.7c0,0.6,0.1,1.2,0.3,1.7c0.2,0.5,0.5,1,0.8,1.4c0.4,0.4,0.8,0.7,1.3,0.9C23.3,68.7,23.8,68.9,24.5,68.9z"
			/>
		<path class="st1" d="M32.2,59h6.9v1.4h-5.4v3.4h5v1.4h-5V70h-1.5V59z"/>
		<path class="st1" d="M48,60.4h-3.5V59H53v1.4h-3.5V70H48V60.4z"/>
		<path class="st1" d="M54.8,59h1.5v4.6h5.7V59h1.5v11h-1.5v-5h-5.7v5h-1.5V59z"/>
		<path class="st1" d="M65.2,59h7.1v1.4h-5.6v3.3h5.2v1.4h-5.2v3.5h5.9V70h-7.4V59z"/>
		<path class="st1" d="M79.3,59h3.9c0.7,0,1.3,0.1,1.7,0.3c0.5,0.2,0.8,0.4,1.1,0.7c0.3,0.3,0.4,0.6,0.6,1c0.1,0.4,0.2,0.7,0.2,1.1
			c0,0.4-0.1,0.7-0.2,1c-0.1,0.3-0.3,0.6-0.5,0.9c-0.2,0.3-0.5,0.5-0.9,0.7c-0.3,0.2-0.7,0.3-1.1,0.3l3.1,5h-1.9l-2.8-4.8h-1.7V70
			h-1.5V59z M80.8,63.8h2c0.3,0,0.6,0,0.9-0.1c0.3,0,0.5-0.1,0.8-0.3c0.2-0.1,0.4-0.3,0.5-0.5c0.1-0.2,0.2-0.5,0.2-0.9
			c0-0.4-0.1-0.7-0.2-0.9c-0.1-0.2-0.3-0.4-0.5-0.5c-0.2-0.1-0.5-0.2-0.8-0.3c-0.3,0-0.6-0.1-0.9-0.1h-2V63.8z"/>
		<path class="st1" d="M93.7,70.3c-0.8,0-1.6-0.1-2.3-0.4c-0.7-0.3-1.3-0.7-1.8-1.2c-0.5-0.5-0.9-1.1-1.2-1.8
			c-0.3-0.7-0.4-1.5-0.4-2.3c0-0.8,0.1-1.6,0.4-2.3c0.3-0.7,0.7-1.3,1.2-1.8c0.5-0.5,1.1-0.9,1.8-1.2c0.7-0.3,1.5-0.4,2.3-0.4
			c0.8,0,1.6,0.1,2.3,0.4c0.7,0.3,1.3,0.7,1.8,1.2c0.5,0.5,0.9,1.1,1.2,1.8c0.3,0.7,0.4,1.5,0.4,2.3c0,0.8-0.1,1.6-0.4,2.3
			c-0.3,0.7-0.7,1.3-1.2,1.8c-0.5,0.5-1.1,0.9-1.8,1.2C95.3,70.1,94.5,70.3,93.7,70.3z M93.7,68.9c0.6,0,1.2-0.1,1.7-0.3
			c0.5-0.2,0.9-0.5,1.3-0.9c0.4-0.4,0.6-0.9,0.8-1.4c0.2-0.5,0.3-1.1,0.3-1.7c0-0.6-0.1-1.2-0.3-1.7c-0.2-0.5-0.5-1-0.8-1.4
			c-0.4-0.4-0.8-0.7-1.3-0.9c-0.5-0.2-1.1-0.3-1.7-0.3c-0.6,0-1.2,0.1-1.7,0.3c-0.5,0.2-0.9,0.5-1.3,0.9c-0.4,0.4-0.6,0.9-0.8,1.4
			c-0.2,0.5-0.3,1.1-0.3,1.7c0,0.6,0.1,1.2,0.3,1.7c0.2,0.5,0.5,1,0.8,1.4c0.4,0.4,0.8,0.7,1.3,0.9C92.5,68.7,93.1,68.9,93.7,68.9z"
			/>
		<path class="st1" d="M109.4,61.4c-0.3-0.4-0.7-0.7-1.2-0.9c-0.5-0.2-1-0.3-1.5-0.3c-0.6,0-1.2,0.1-1.7,0.3c-0.5,0.2-0.9,0.6-1.3,1
			s-0.6,0.9-0.8,1.4c-0.2,0.5-0.3,1.1-0.3,1.7c0,0.6,0.1,1.1,0.3,1.6c0.2,0.5,0.5,1,0.8,1.4c0.4,0.4,0.8,0.7,1.3,0.9
			c0.5,0.2,1.1,0.3,1.7,0.3c0.6,0,1.2-0.1,1.7-0.4c0.5-0.3,0.9-0.6,1.2-1.1l1.3,0.9c-0.1,0.1-0.2,0.3-0.4,0.5
			c-0.2,0.2-0.5,0.4-0.8,0.6c-0.3,0.2-0.8,0.4-1.2,0.6c-0.5,0.2-1,0.2-1.7,0.2c-0.9,0-1.7-0.2-2.4-0.5c-0.7-0.3-1.3-0.8-1.8-1.3
			c-0.5-0.5-0.9-1.1-1.1-1.8c-0.3-0.7-0.4-1.4-0.4-2.1c0-0.8,0.1-1.6,0.4-2.4c0.3-0.7,0.7-1.3,1.2-1.9c0.5-0.5,1.1-0.9,1.8-1.2
			c0.7-0.3,1.5-0.4,2.3-0.4c0.7,0,1.4,0.1,2.1,0.4c0.7,0.3,1.3,0.7,1.7,1.3L109.4,61.4z"/>
		<path class="st1" d="M112.8,59h1.5v4.8h0.1l4.9-4.8h2.1l-5.3,5.1l5.7,5.9h-2.2l-5.1-5.5h-0.1V70h-1.5V59z"/>
		<path class="st1" d="M123.5,59h1.5v11h-1.5V59z"/>
		<path class="st1" d="M127.4,59h7.1v1.4h-5.6v3.3h5.2v1.4h-5.2v3.5h5.9V70h-7.4V59z"/>
		<path class="st1" d="M137.3,67.7c0.3,0.4,0.6,0.7,1,0.9s0.9,0.3,1.3,0.3c0.2,0,0.5,0,0.8-0.1c0.3-0.1,0.5-0.2,0.7-0.3
			c0.2-0.2,0.4-0.3,0.5-0.6c0.1-0.2,0.2-0.5,0.2-0.8c0-0.4-0.1-0.7-0.4-1c-0.3-0.2-0.6-0.4-1-0.6c-0.4-0.2-0.8-0.3-1.3-0.4
			c-0.5-0.1-0.9-0.3-1.3-0.6c-0.4-0.2-0.7-0.6-1-1s-0.4-1-0.4-1.7c0-0.3,0.1-0.7,0.2-1c0.1-0.4,0.4-0.7,0.7-1
			c0.3-0.3,0.7-0.6,1.2-0.8c0.5-0.2,1-0.3,1.7-0.3c0.6,0,1.2,0.1,1.7,0.2c0.5,0.2,1,0.5,1.4,1l-1.2,1.1c-0.2-0.3-0.5-0.5-0.8-0.7
			c-0.3-0.2-0.7-0.3-1.2-0.3c-0.4,0-0.8,0.1-1,0.2c-0.3,0.1-0.5,0.2-0.7,0.4c-0.2,0.2-0.3,0.4-0.3,0.6c-0.1,0.2-0.1,0.4-0.1,0.5
			c0,0.5,0.1,0.8,0.4,1.1c0.3,0.2,0.6,0.5,1,0.6c0.4,0.2,0.8,0.3,1.3,0.4s0.9,0.3,1.3,0.5c0.4,0.2,0.7,0.5,1,0.9
			c0.3,0.4,0.4,0.9,0.4,1.6c0,0.5-0.1,1-0.3,1.4c-0.2,0.4-0.5,0.8-0.8,1.1c-0.3,0.3-0.7,0.5-1.2,0.7c-0.5,0.2-1,0.2-1.5,0.2
			c-0.7,0-1.4-0.1-2-0.4c-0.6-0.2-1.1-0.6-1.5-1.1L137.3,67.7z"/>
	</g>
</g>
<g id="Logo">
</g>
</svg>
